<svg width="1844" height="1405" viewBox="0 0 1844 1405" fill="none" xmlns="http://www.w3.org/2000/svg">
<path d="M1755.78 823.381C1752.95 817.943 1747.64 814.081 1741.31 813.276L1687.16 660.376C1689.92 657.063 1691.64 652.86 1691.64 648.213C1691.64 638.915 1685 631.186 1676.22 629.471L1623.87 481.639V453.492C1623.87 452.422 1623.72 451.392 1623.55 450.37C1623.72 449.348 1623.87 448.318 1623.87 447.248C1623.87 436.744 1615.4 428.234 1604.92 428.15L1603.18 423.226L1603.19 423.269C1585.15 371.847 1536.68 337.431 1482.26 337.428H1467.33V337.114C1467.33 326.558 1458.78 318 1448.23 318C1437.69 318 1429.14 326.558 1429.14 337.114V337.428H1274.49V337.114C1274.49 326.558 1265.94 318 1255.4 318C1244.85 318 1236.3 326.558 1236.3 337.114V337.428H1066.91V337.114C1066.91 326.558 1058.36 318 1047.81 318C1037.27 318 1028.72 326.558 1028.72 337.114V337.428H961.591C907.174 337.431 858.7 371.847 840.658 423.269L838.639 429.025C832.325 432.142 827.942 438.588 827.942 446.112V447.247V459.514L768.39 629.251C758.564 630.035 750.808 638.173 750.808 648.21C750.808 653.704 753.155 658.621 756.863 662.107L703.832 813.26C696.003 814.197 689.673 819.813 687.702 827.282C687.29 828.843 687.001 830.453 687.001 832.143C687.001 842.699 695.55 851.257 706.095 851.257H707.453L772.235 1034.21C767.914 1037.72 765.095 1043 765.095 1049C765.095 1059.56 773.644 1068.12 784.19 1068.12H784.24L827.941 1191.53V1201.57C827.941 1202.27 828.074 1202.94 828.148 1203.63C828.073 1204.31 827.941 1204.98 827.941 1205.69C827.941 1213.4 832.524 1220 839.09 1223.02L842.649 1233.07L842.634 1233.03C859.49 1281.07 904.784 1313.23 955.632 1313.24H1030.19C1033.07 1320.14 1039.87 1325 1047.81 1325C1055.75 1325 1062.56 1320.14 1065.43 1313.24H1239.62C1243.06 1318.28 1248.84 1321.59 1255.39 1321.59C1261.95 1321.59 1267.73 1318.28 1271.17 1313.24H1430.61C1433.49 1320.14 1440.29 1325 1448.23 1325C1456.17 1325 1462.97 1320.14 1465.85 1313.24H1488.22C1539.07 1313.23 1584.36 1281.07 1601.22 1233.03L1604.1 1224.8H1604.77C1615.31 1224.8 1623.86 1216.24 1623.86 1205.69V1168.48L1659.08 1068.12H1662.34C1672.88 1068.12 1681.43 1059.56 1681.43 1049.01C1681.43 1041.84 1677.44 1035.67 1671.61 1032.39L1735.16 851.258H1738.9C1749.45 851.258 1758 842.701 1758 832.145C1758 828.968 1757.15 826.017 1755.78 823.381ZM827.942 1098.25L817.271 1068.12H827.942V1098.25ZM827.942 926.405V1029.89H803.737L757.126 898.258L740.484 851.258H827.943L827.942 926.405ZM827.942 813.032H736.908L788.029 667.324H827.941L827.942 813.032ZM827.942 594.088V629.1H801.441L814.89 590.763L827.941 553.564L827.942 594.088ZM961.591 368.591H1028.72V428.135H872.192C887.26 392.243 922.374 368.589 961.591 368.591ZM866.131 1068.12H1028.72V1186.58H866.131V1068.12ZM866.131 1029.89V941.585V851.258H1028.72V1006.21V1029.89H866.131ZM866.131 813.032V667.324H1028.72V813.032H866.131ZM965.376 629.099H866.131V603.816V466.36H1028.72V629.1L965.376 629.099ZM872.839 1224.8H1028.72V1282.07H955.633C918.775 1282.08 885.891 1259.2 872.839 1224.8ZM1066.91 368.591H1236.3V428.135H1066.91V368.591ZM1066.91 466.36H1236.3V629.1H1066.91V466.36ZM1066.91 667.324H1115.43H1236.3V698.116V813.032H1066.91V667.324ZM1066.91 1021.39V851.257H1236.3V1029.89H1088.3H1066.91V1021.39ZM1066.91 1068.12H1184.47H1236.3V1088.72V1186.58H1066.91V1068.12H1066.91ZM1066.91 1224.8H1236.3V1282.07H1066.91V1224.8ZM1274.49 368.591H1429.14V428.135H1274.49V368.591ZM1274.49 466.36H1429.14V629.1H1274.49V466.36ZM1274.49 707.845V667.324H1429.14V747.241V813.032H1274.49V707.845ZM1274.49 851.258H1429.14V1029.89H1274.49V851.258ZM1274.49 1103.9V1068.12H1429.14V1165.37V1186.58H1274.49V1103.9ZM1274.49 1224.8H1429.14V1282.07H1274.49V1224.8ZM1467.33 368.591H1482.26C1521.48 368.589 1556.59 392.243 1571.66 428.135H1467.33V368.591ZM1467.33 466.36H1585.42L1585.68 467.075V629.1H1467.33V466.36ZM1467.33 756.97V667.324H1585.68V787.12V813.033H1467.33V756.97ZM1467.33 851.258H1585.68V1029.89H1467.33V851.258ZM1467.33 1180.55V1068.12H1585.68V1183.28L1584.52 1186.58H1482.49H1467.33V1180.55H1467.33ZM1488.22 1282.07H1467.33V1224.8H1571.01C1557.96 1259.2 1525.08 1282.08 1488.22 1282.07ZM1623.87 574.912L1643.05 629.1H1623.87V574.912ZM1623.87 796.848V667.325H1656.59L1708.19 813.034H1687.4H1623.87V796.848ZM1623.87 1074.43V1068.12H1626.08L1623.87 1074.43ZM1639.49 1029.89H1623.87V851.258H1702.16L1639.49 1029.89Z" fill="#A8A8A8"/>
<path d="M1741.31 813.276C1740.51 813.175 1739.73 813.033 1738.91 813.033H1708.19H1687.4H1623.87V796.848V667.325H1656.59H1672.55C1678.45 667.325 1683.66 664.588 1687.16 660.376C1689.92 657.063 1691.64 652.86 1691.64 648.213C1691.64 638.915 1685.01 631.186 1676.22 629.471C1675.03 629.239 1673.8 629.101 1672.55 629.101H1643.06H1623.87V574.913V481.639V453.492C1623.87 452.422 1623.72 451.392 1623.55 450.37C1623.72 449.348 1623.87 448.318 1623.87 447.248C1623.87 436.744 1615.4 428.234 1604.92 428.15C1604.87 428.15 1604.82 428.135 1604.77 428.135H1571.66H1467.33V368.591V337.429V337.115C1467.33 326.559 1458.78 318.001 1448.23 318.001C1437.69 318.001 1429.14 326.559 1429.14 337.115V337.429V368.591V428.135H1274.49V368.591V337.429V337.115C1274.49 326.559 1265.94 318.001 1255.4 318.001C1244.85 318.001 1236.3 326.559 1236.3 337.115V337.429V368.591V428.135H1066.91V368.591V337.429V337.115C1066.91 326.559 1058.36 318.001 1047.81 318.001C1037.27 318.001 1028.72 326.559 1028.72 337.115V337.429V368.591V428.135H872.193H853.29C851.321 427.448 849.239 427 847.037 427C844.008 427 841.183 427.77 838.639 429.026C832.325 432.143 827.942 438.589 827.942 446.113V447.248V459.515V553.564V594.088V629.1H801.441H769.902C769.384 629.1 768.897 629.212 768.39 629.252C758.564 630.036 750.808 638.174 750.808 648.211C750.808 653.705 753.155 658.622 756.863 662.108C760.279 665.321 764.845 667.325 769.902 667.325H788.03H827.942V813.033H736.909H706.095C705.319 813.033 704.582 813.171 703.831 813.261C696.002 814.198 689.672 819.814 687.701 827.283C687.289 828.844 687 830.454 687 832.144C687 842.7 695.549 851.258 706.094 851.258H707.452H740.483H827.941V926.406V1029.89H803.736H784.189C779.638 1029.89 775.516 1031.55 772.235 1034.21C767.913 1037.72 765.095 1043.01 765.095 1049.01C765.095 1059.56 773.643 1068.12 784.189 1068.12H784.239H817.27H827.941V1098.25V1191.54V1201.57C827.941 1202.27 828.074 1202.94 828.148 1203.63C828.073 1204.31 827.941 1204.98 827.941 1205.69C827.941 1213.4 832.524 1220 839.09 1223.02C841.516 1224.14 844.19 1224.8 847.036 1224.8H872.839H1028.72V1282.07V1305.89C1028.72 1308.49 1029.25 1310.97 1030.19 1313.24C1033.07 1320.14 1039.87 1325 1047.81 1325C1055.76 1325 1062.56 1320.14 1065.44 1313.24C1066.38 1310.97 1066.91 1308.49 1066.91 1305.89V1282.07V1224.8H1236.3V1282.07V1302.48C1236.3 1306.47 1237.53 1310.17 1239.62 1313.24C1243.06 1318.28 1248.84 1321.59 1255.4 1321.59C1261.96 1321.59 1267.74 1318.28 1271.17 1313.24C1273.26 1310.17 1274.49 1306.47 1274.49 1302.48V1282.07V1224.8H1429.14V1282.07V1305.89C1429.14 1308.49 1429.67 1310.97 1430.61 1313.24C1433.49 1320.14 1440.29 1325 1448.23 1325C1456.18 1325 1462.98 1320.14 1465.86 1313.24C1466.8 1310.97 1467.33 1308.49 1467.33 1305.89V1282.07V1224.8H1571.02H1604.11H1604.77C1615.32 1224.8 1623.87 1216.24 1623.87 1205.69V1168.48V1074.43V1068.12H1626.08H1659.08H1662.34C1672.88 1068.12 1681.43 1059.56 1681.43 1049.01C1681.43 1041.84 1677.44 1035.67 1671.61 1032.39C1668.85 1030.85 1665.72 1029.89 1662.34 1029.89H1639.49H1623.87V851.258H1702.16H1735.16H1738.91C1749.45 851.258 1758 842.701 1758 832.145C1758 828.968 1757.15 826.017 1755.78 823.381C1752.95 817.943 1747.64 814.081 1741.31 813.276ZM1585.68 787.12V813.033H1467.33V756.971V667.325H1585.68V787.12ZM1429.14 1029.89H1274.49V851.258H1429.14V1029.89ZM1066.91 1021.39V851.257H1236.3V1029.89H1088.3H1066.91V1021.39ZM1066.91 667.324H1115.43H1236.3V698.116V813.032H1066.91V667.324ZM1274.49 813.032V707.845V667.324H1429.14V747.241V813.032H1274.49ZM1585.42 466.36H1585.68V467.075V629.1H1467.33V466.36H1585.42ZM1429.14 466.36V629.1H1274.49V466.36H1429.14ZM1236.3 466.36V629.1H1066.91V466.36H1236.3ZM866.131 603.817V466.36H1028.72V629.1H965.376H866.131V603.817ZM866.131 667.324H1028.72V813.032H866.131V667.324ZM866.131 941.584V851.257H1028.72V1006.21V1029.89H866.131V941.584ZM866.131 1186.58V1068.12H1028.72V1186.58H866.131ZM1066.91 1186.58V1068.12H1184.47H1236.3V1088.72V1186.58H1066.91ZM1274.49 1186.58V1103.9V1068.12H1429.14V1165.37V1186.58H1274.49ZM1585.68 1183.28V1186.58H1584.52H1482.49H1467.33V1180.55V1068.12H1585.68L1585.68 1183.28ZM1585.68 1029.89H1467.33V851.258H1585.68V1029.89Z" fill="#CCCCCC"/>
</svg>
