<svg width="1844" height="1405" viewBox="0 0 1844 1405" fill="none" xmlns="http://www.w3.org/2000/svg">
<path d="M1671.88 338.967C1655.4 292.115 1615.4 258.474 1567.94 249.184L1568.07 249.108C1568.07 249.108 1261.55 171.822 1159.42 144.377C1155.27 134.593 1149.27 124.597 1140.31 115.884C1136 111.697 1130.99 107.891 1125.39 104.657C1121.96 79.8753 1103.53 68.1663 1076.74 62.8543L799.594 1.06934C777.035 -3.57866 758.052 6.95636 753.308 32.6164C743.14 36.8514 734.527 42.7953 727.546 49.2723C715.14 60.8443 707.096 73.8064 701.747 83.9814C699.12 89.0234 697.184 93.4003 695.855 96.6513H302.358C243.643 96.6513 191.324 133.716 171.85 189.108L0 677.924L174.277 1169.1C192.296 1220.36 238.129 1241.17 295.039 1254.66L837.875 1391.29C855.112 1399.8 874.383 1404.52 894.477 1404.52H1548.69C1603.02 1404.52 1651.43 1370.22 1669.45 1318.96L1843.73 823.242L1671.88 338.967ZM752.134 93.2003C755.04 89.2923 758.352 85.7073 761.811 82.7763C764.978 88.0713 768.776 92.7464 773.124 96.6504H749.689C750.468 95.4924 751.276 94.3353 752.134 93.2003Z" fill="#F4E2D5"/>
<path d="M1671.88 338.967C1655.4 292.115 1615.4 258.474 1567.94 249.184L1568.07 249.108C1568.07 249.108 1261.55 171.822 1159.42 144.377C1160.3 146.451 1161.12 148.519 1161.84 150.559C1164.59 158.37 1166.28 165.935 1167.36 172.84C1168.79 182.047 1169.13 190.096 1169.13 196.007C1169.13 201.857 1168.79 205.608 1168.73 206.224C1167.47 219.357 1155.79 228.978 1142.66 227.715C1129.56 226.454 1119.97 214.838 1121.17 201.746L1121.16 201.745L1121.18 201.584C1121.19 201.394 1121.21 201.042 1121.24 200.546C1121.29 199.555 1121.35 197.991 1121.35 196.007C1121.36 191.503 1121.03 184.826 1119.76 177.887C1118.51 170.936 1116.28 163.804 1113.1 158.201C1112.69 157.469 1112.2 156.881 1111.76 156.199C1109.97 153.419 1108.01 150.951 1105.71 148.985C1105.68 148.959 1105.66 148.923 1105.63 148.896C1101.72 145.656 1097.07 143.148 1089.15 141.887C1076.1 139.91 1067.13 127.733 1069.11 114.688C1071.08 101.644 1083.26 92.6714 1096.31 94.6494C1102.64 95.6054 1108.62 97.2134 1114.21 99.3464C1116.54 100.237 1118.83 101.193 1121.01 102.273C1122.52 103.016 1123.96 103.83 1125.39 104.655C1121.95 79.8734 1103.53 68.1644 1076.74 62.8524L799.593 1.06738C777.034 -3.58062 758.051 6.95438 753.307 32.6144C752.563 36.6424 752.138 41.0094 752.138 45.7844C752.138 60.2184 755.772 72.6784 761.811 82.7754C764.978 88.0704 768.776 92.7454 773.124 96.6494H749.689C743.042 106.532 739.255 116.683 738.989 117.555H738.991V117.556L738.964 117.637C738.964 117.638 738.962 117.642 738.962 117.643L738.954 117.64C734.777 130.11 721.307 136.87 708.81 132.738C696.284 128.596 689.487 115.084 693.629 102.557C693.779 102.113 694.5 99.9694 695.855 96.6494H302.358C243.643 96.6494 191.324 133.714 171.85 189.106L0 677.922H0.00100708L599.438 827.781L687.463 827.46C689.435 819.992 695.771 814.376 703.606 813.439L756.682 662.299C752.971 658.813 750.622 653.896 750.622 648.403C750.622 638.367 758.385 630.229 768.219 629.445L827.822 459.722V447.456V446.321C827.822 438.798 832.208 432.353 838.528 429.236L840.549 423.48C858.606 372.063 907.121 337.649 961.585 337.646H1028.77V337.332C1028.77 326.777 1037.33 318.22 1047.88 318.22C1058.43 318.22 1066.99 326.777 1066.99 337.332V337.646H1236.53V337.332C1236.53 326.777 1245.09 318.22 1255.64 318.22C1266.2 318.22 1274.75 326.777 1274.75 337.332V337.646H1429.53V337.332C1429.53 326.777 1438.09 318.22 1448.64 318.22C1459.19 318.22 1467.75 326.777 1467.75 337.332V337.646H1482.7C1537.16 337.649 1585.68 372.063 1603.73 423.48L1603.72 423.437L1605.46 428.361C1615.95 428.445 1624.42 436.954 1624.42 447.457C1624.42 448.527 1624.28 449.557 1624.11 450.579C1624.28 451.601 1624.42 452.631 1624.42 453.701V481.846L1676.82 629.664C1685.61 631.379 1692.26 639.109 1692.26 648.405C1692.26 653.052 1690.53 657.254 1687.77 660.567L1741.97 813.454C1748.3 814.259 1753.62 818.121 1756.45 823.558L1843.72 823.24L1671.88 338.967Z" fill="#CD3D0C"/>
<path d="M1671.88 338.968C1655.4 292.116 1615.4 258.475 1567.94 249.185C1559.29 247.492 1550.42 246.511 1541.37 246.511H901.796C874.577 246.511 848.787 254.557 826.952 268.62C806.203 281.984 789.111 300.832 777.864 323.608C775.415 328.568 773.156 333.654 771.288 338.968L599.438 827.784L687.463 827.463C689.435 819.995 695.771 814.379 703.606 813.442L756.682 662.302C752.971 658.816 750.622 653.899 750.622 648.406C750.622 638.37 758.385 630.232 768.219 629.448L827.822 459.725V447.459V446.324C827.822 438.801 832.208 432.356 838.528 429.239L840.549 423.483C858.606 372.066 907.12 337.652 961.584 337.649H1028.77V337.335C1028.77 326.78 1037.33 318.223 1047.88 318.223C1058.43 318.223 1066.99 326.78 1066.99 337.335V337.649H1236.53V337.335C1236.53 326.78 1245.09 318.223 1255.64 318.223C1266.19 318.223 1274.75 326.78 1274.75 337.335V337.649H1429.53V337.335C1429.53 326.78 1438.09 318.223 1448.64 318.223C1459.19 318.223 1467.75 326.78 1467.75 337.335V337.649H1482.7C1537.16 337.652 1585.68 372.066 1603.73 423.483L1603.72 423.44L1605.46 428.364C1615.95 428.448 1624.42 436.957 1624.42 447.46C1624.42 448.53 1624.28 449.56 1624.11 450.582C1624.28 451.604 1624.42 452.634 1624.42 453.704V481.849L1676.82 629.667C1685.61 631.382 1692.26 639.112 1692.26 648.408C1692.26 653.055 1690.53 657.257 1687.77 660.57L1741.97 813.457C1748.3 814.262 1753.62 818.124 1756.45 823.561L1843.72 823.243L1671.88 338.968Z" fill="#EA5B0C"/>
<path d="M837.875 1391.29C808.507 1376.8 785.071 1351.26 773.716 1318.96L599.439 827.784L0.00195312 677.925L73.819 885.97L174.278 1169.1C192.297 1220.36 238.13 1241.17 295.04 1254.66L837.875 1391.29Z" fill="#DEB295"/>
<path d="M708.809 132.739C721.306 136.871 734.776 130.111 738.953 117.641L738.961 117.644C738.961 117.643 738.963 117.639 738.963 117.638L738.99 117.558V117.557L738.988 117.556C739.254 116.684 743.041 106.533 749.688 96.6502C750.467 95.4912 751.276 94.3352 752.133 93.2002C755.039 89.2922 758.351 85.7072 761.81 82.7762C755.771 72.6792 752.137 60.2202 752.137 45.7852C752.137 41.0102 752.562 36.6432 753.306 32.6152C743.138 36.8502 734.525 42.7942 727.544 49.2712C715.138 60.8432 707.094 73.8052 701.745 83.9802C699.118 89.0222 697.182 93.3992 695.853 96.6502C694.498 99.9692 693.778 102.114 693.627 102.558C689.486 115.084 696.283 128.596 708.809 132.739Z" fill="#CCCCCC"/>
<path d="M1114.21 99.348C1108.62 97.216 1102.64 95.608 1096.31 94.651C1083.26 92.674 1071.08 101.646 1069.11 114.69C1067.13 127.734 1076.1 139.912 1089.15 141.889C1097.07 143.15 1101.72 145.657 1105.63 148.898C1105.66 148.924 1105.68 148.96 1105.71 148.987C1108.01 150.953 1109.97 153.421 1111.76 156.201C1112.2 156.883 1112.69 157.47 1113.1 158.203C1116.28 163.807 1118.51 170.939 1119.76 177.889C1121.03 184.828 1121.36 191.505 1121.35 196.009C1121.35 197.993 1121.29 199.557 1121.24 200.548C1121.21 201.044 1121.19 201.396 1121.18 201.586L1121.16 201.747L1121.17 201.748C1119.97 214.84 1129.56 226.456 1142.66 227.717C1155.79 228.981 1167.47 219.359 1168.73 206.226C1168.79 205.61 1169.13 201.86 1169.13 196.009C1169.13 190.098 1168.79 182.049 1167.36 172.842C1166.28 165.937 1164.59 158.372 1161.84 150.561C1161.12 148.52 1160.3 146.453 1159.42 144.379C1155.27 134.595 1149.27 124.599 1140.31 115.886C1136 111.699 1130.99 107.893 1125.39 104.659C1123.96 103.834 1122.52 103.02 1121.01 102.277C1118.83 101.195 1116.54 100.238 1114.21 99.348Z" fill="#CCCCCC"/>
<path d="M1429.53 466.569H1274.75V629.295H1429.53V466.569Z" fill="#CD3D0C"/>
<path d="M1624.42 667.517V797.031L1688.01 813.214H1708.82L1657.18 667.517H1624.42Z" fill="#CD3D0C"/>
<path d="M1429.53 667.517H1274.75V708.035L1429.53 747.429V667.517Z" fill="#CD3D0C"/>
<path d="M1467.75 757.156L1586.2 787.303V667.517H1467.75V757.156Z" fill="#CD3D0C"/>
<path d="M1236.53 466.569H1066.99V629.295H1236.53V466.569Z" fill="#CD3D0C"/>
<path d="M1429.53 368.809H1274.75V428.348H1429.53V368.809Z" fill="#CD3D0C"/>
<path d="M1624.42 629.294H1643.63L1624.42 575.112V629.294Z" fill="#CD3D0C"/>
<path d="M1467.75 629.294H1586.2V467.284L1585.95 466.569H1467.75V629.294Z" fill="#CD3D0C"/>
<path d="M1482.7 368.809H1467.75V428.348H1572.17C1557.09 392.459 1521.95 368.807 1482.7 368.809Z" fill="#CD3D0C"/>
<path d="M1236.53 667.517H1115.55L1236.53 698.308V667.517Z" fill="#CD3D0C"/>
<path d="M827.823 594.287V553.767L814.76 590.963L827.823 594.287Z" fill="#CD3D0C"/>
<path d="M1236.53 368.809H1066.99V428.348H1236.53V368.809Z" fill="#CD3D0C"/>
<path d="M872.11 428.348H1028.77V368.809H961.585C922.335 368.807 887.191 392.459 872.11 428.348Z" fill="#CD3D0C"/>
<path d="M1028.77 629.294V466.569H866.044V604.014L965.374 629.294H1028.77Z" fill="#CD3D0C"/>
<path d="M1429.53 1224.95H1274.75V1282.22H1429.53V1224.95Z" fill="#C69E85"/>
<path d="M1467.75 1186.73H1482.93L1467.75 1180.7V1186.73Z" fill="#C69E85"/>
<path d="M1236.53 1224.95H1066.99V1282.22H1236.53V1224.95Z" fill="#C69E85"/>
<path d="M1571.53 1224.95H1467.75V1282.22H1488.66C1525.55 1282.22 1558.46 1259.34 1571.53 1224.95Z" fill="#C69E85"/>
<path d="M1429.53 1165.52L1274.75 1104.06V1186.73H1429.53V1165.52Z" fill="#C69E85"/>
<path d="M1236.53 1088.88L1184.65 1068.28H1066.99V1186.73H1236.53V1088.88Z" fill="#C69E85"/>
<path d="M1028.77 1006.37L866.044 941.754V1030.05H1028.77V1006.37Z" fill="#C69E85"/>
<path d="M1066.99 1021.55V1030.06H1088.4L1066.99 1021.55Z" fill="#C69E85"/>
<path d="M803.596 1030.06H827.823V926.577L756.946 898.432L803.596 1030.06Z" fill="#C69E85"/>
<path d="M1028.77 1068.28H866.044V1186.73H1028.77V1068.28Z" fill="#C69E85"/>
<path d="M955.623 1282.22H1028.77V1224.95H872.758C885.821 1259.34 918.733 1282.22 955.623 1282.22Z" fill="#C69E85"/>
<path d="M827.823 1068.28H817.143L827.823 1098.41V1068.28Z" fill="#C69E85"/>
<path d="M1624.42 1068.28V1074.59L1626.64 1068.28H1624.42Z" fill="#DCBEAC"/>
<path d="M1624.42 851.436V1030.06H1640.06L1702.79 851.436H1624.42Z" fill="#DCBEAC"/>
<path d="M1429.53 851.436H1274.75V1030.06H1429.53V851.436Z" fill="#DCBEAC"/>
<path d="M1467.75 1180.7L1482.93 1186.73H1585.04L1586.2 1183.43V1068.28H1467.75V1180.7Z" fill="#DCBEAC"/>
<path d="M1429.53 1068.28H1274.75V1104.06L1429.53 1165.52V1068.28Z" fill="#DCBEAC"/>
<path d="M1586.2 851.436H1467.75V1030.06H1586.2V851.436Z" fill="#DCBEAC"/>
<path d="M1236.53 1068.28H1184.65L1236.53 1088.88V1068.28Z" fill="#DCBEAC"/>
<path d="M827.823 926.577V851.436H740.29L756.946 898.432L827.823 926.577Z" fill="#DCBEAC"/>
<path d="M1236.53 1030.06V851.436H1066.99V1021.55L1088.4 1030.06H1236.53Z" fill="#DCBEAC"/>
<path d="M1028.77 851.436H866.044V941.755L1028.77 1006.37V851.436Z" fill="#DCBEAC"/>
<path d="M1467.75 813.212L1586.2 813.213V787.302L1467.75 757.155V813.212Z" fill="#DCBEAC"/>
<path d="M1624.42 813.213H1688.01L1624.42 797.03V813.213Z" fill="#DCBEAC"/>
<path d="M1236.53 698.308L1115.55 667.517H1066.99V813.213H1236.53V698.308Z" fill="#DCBEAC"/>
<path d="M1274.75 708.034V813.212H1429.53V747.428L1274.75 708.034Z" fill="#DCBEAC"/>
<path d="M1028.77 667.517H866.044V813.213H1028.77V667.517Z" fill="#DCBEAC"/>
<path d="M866.044 604.015V629.295H965.374L866.044 604.015Z" fill="#DCBEAC"/>
<path d="M801.299 629.295H827.823V594.287L814.76 590.963L801.299 629.295Z" fill="#DCBEAC"/>
<path d="M827.823 813.213V667.517H787.876L736.712 813.213H827.823Z" fill="#DCBEAC"/>
<path d="M303.784 633.741C318.884 638.497 334.982 630.111 339.738 615.011L430.562 326.645C435.318 311.544 426.932 295.447 411.832 290.691C396.731 285.935 380.634 294.321 375.878 309.422L285.054 597.787C280.297 612.888 288.683 628.985 303.784 633.741Z" fill="#AB0F09"/>
<path d="M451.184 692.947C466.285 697.703 482.382 689.317 487.138 674.216L577.962 385.85C582.718 370.75 574.332 354.653 559.231 349.897C544.13 345.141 528.034 353.527 523.277 368.627L432.453 656.993C427.698 672.093 436.084 688.19 451.184 692.947Z" fill="#AB0F09"/>
<path d="M153.589 599.217C168.689 603.973 184.786 595.587 189.543 580.487L280.367 292.121C285.123 277.021 276.737 260.924 261.637 256.168C246.537 251.412 230.44 259.798 225.684 274.898L134.86 563.264C130.102 578.363 138.488 594.46 153.589 599.217Z" fill="#AB0F09"/>
<path d="M1420.88 270.75C1415.97 271.512 1417.73 278.403 1421.97 278.815C1445.35 281.088 1468.63 283.136 1492.14 284.06C1509.97 284.761 1527.85 284.646 1545.49 287.702C1562.37 290.626 1578.64 295.779 1592.47 306.172C1607.41 317.4 1615.75 333.943 1622.58 350.922C1639.73 393.556 1655.19 436.953 1673.31 479.178C1682.59 500.787 1691.13 522.712 1699.62 544.637C1707.44 564.81 1715.31 584.195 1729.4 600.883C1731.44 603.292 1734.95 601.151 1735.14 598.507C1737.85 560.561 1720.91 522.029 1709.68 486.42C1698 449.341 1684.76 413.113 1670.54 376.917C1658.34 345.839 1646.43 309.318 1620.15 287.026C1597.45 267.772 1567.59 261.448 1538.51 260.108C1499.06 258.291 1459.69 264.711 1420.88 270.75Z" fill="#F49600"/>
<path d="M1042.66 271.31C1033.37 269.904 1024.73 263.972 1015.66 261.418C1005.81 258.644 995.469 256.457 985.312 255.355C969.103 253.596 952.811 253.658 936.532 254.405C903.97 255.897 870 261.184 842.062 279.082C812.4 298.086 795.555 327.664 782.731 359.576C768.018 396.189 757.197 434.707 744.786 472.157C737.431 494.353 730.139 516.528 723.405 538.922C720.041 550.111 716.677 561.277 713.708 572.577C710.423 585.082 709.672 596.951 707.778 609.694C707.511 611.496 709.769 612.708 710.848 610.989C717.561 600.282 724.597 590.932 730.107 579.492C735.479 568.337 740.413 557.006 745.389 545.67C755.258 523.185 764.485 500.466 773.727 477.715C783.164 454.483 792.602 431.25 802.039 408.018C810.021 388.371 817.056 367.957 827.128 349.253C846.131 313.967 877.64 297.62 916.482 292.229C935.887 289.535 955.392 290.241 974.884 289.289C986.543 288.719 997.802 286.968 1009.22 284.62C1020.36 282.33 1031.15 275.615 1042.26 274.245C1043.75 274.058 1044.49 271.587 1042.66 271.31Z" fill="#F49600"/>
<path d="M826.952 268.619L272.473 137.521L777.864 323.607C789.111 300.831 806.203 281.983 826.952 268.619Z" fill="#AB0F09"/>
<path d="M688.254 1353.63C705.342 1162.46 644.678 958.105 481.935 873.479C365.858 819.905 183.054 774.721 73.8184 885.969L174.277 1169.1C192.296 1220.36 238.129 1241.17 295.039 1254.66L688.254 1353.63Z" fill="#DCBEAC"/>
<path d="M1076.74 62.8543L799.592 1.06934C777.033 -3.57866 758.05 6.95636 753.306 32.6164C752.562 36.6444 752.137 41.0113 752.137 45.7863C752.137 60.2203 755.771 72.6803 761.81 82.7773C764.977 88.0723 768.775 92.7473 773.123 96.6513C780.697 103.453 789.811 108.043 799.592 110.058L1060.6 167.48C1082.59 173.685 1100.31 168.9 1111.76 156.201C1109.97 153.421 1108.01 150.953 1105.71 148.987C1105.68 148.961 1105.66 148.925 1105.63 148.898C1101.72 145.658 1097.06 143.15 1089.14 141.889C1076.1 139.912 1067.13 127.735 1069.11 114.69C1071.08 101.646 1083.26 92.6733 1096.3 94.6513C1102.64 95.6073 1108.62 97.2154 1114.21 99.3484C1116.54 100.239 1118.82 101.195 1121.01 102.275C1122.52 103.018 1123.96 103.832 1125.39 104.657C1121.95 79.8753 1103.53 68.1663 1076.74 62.8543Z" fill="#EA5B0C"/>
<path d="M794.643 39.8315L1031.76 92.6715C1039.96 94.5005 1048.18 89.2815 1050.01 81.0725L1050.37 79.4515C1052.2 71.2435 1046.98 63.0305 1038.77 61.2005L801.656 8.3605C793.447 6.5315 785.234 11.7505 783.405 19.9595L783.044 21.5805C781.215 29.7885 786.434 38.0015 794.643 39.8315Z" fill="#F49600"/>
<path d="M1089.15 141.889C1076.1 139.912 1067.13 127.735 1069.11 114.691C1071.08 101.647 1083.26 92.6741 1096.31 94.6521C1102.64 95.6081 1108.62 97.2161 1114.21 99.3491C1108.96 87.9681 1099.16 80.2881 1087.9 80.2881C1071.13 80.2881 1057.53 97.2941 1057.53 118.271C1057.53 139.249 1071.13 156.255 1087.9 156.255C1094.57 156.255 1100.71 153.538 1105.72 148.987C1105.68 148.961 1105.66 148.925 1105.63 148.898C1101.72 145.657 1097.07 143.149 1089.15 141.889Z" fill="#B12709"/>
</svg>
