<svg width="638" height="489" viewBox="0 0 638 489" fill="none" xmlns="http://www.w3.org/2000/svg">
<path d="M363.308 486.415C250.133 499.238 136.225 449.249 69.9142 356.464C44.6004 321.043 28.7683 283.979 35.7573 239.682C44.8314 182.201 84.3134 133.503 124.06 93.3618C163.42 53.615 206.821 18.3306 262.691 5.70429C384.336 -21.7965 494.829 54.3554 569.167 143.704C607.875 190.223 625.221 246.766 610.659 306.529C598.393 356.864 560.976 396.509 519.782 425.728C471.899 459.688 418.324 480.18 363.308 486.415Z" fill="#C19A6A"/>
<mask id="mask0_1606_84" style="mask-type:luminance" maskUnits="userSpaceOnUse" x="34" y="0" width="582" height="489">
<path d="M363.308 486.415C250.133 499.238 136.225 449.249 69.9142 356.464C44.6004 321.043 28.7683 283.979 35.7573 239.682C44.8314 182.201 84.3134 133.503 124.06 93.3618C163.42 53.615 206.821 18.3306 262.691 5.70429C384.336 -21.7965 494.829 54.3554 569.167 143.704C607.875 190.223 625.221 246.766 610.659 306.529C598.393 356.864 560.976 396.509 519.782 425.728C471.899 459.688 418.324 480.18 363.308 486.415Z" fill="white"/>
</mask>
<g mask="url(#mask0_1606_84)">
<path opacity="0.1" d="M458.824 73.5356C420.674 52.5755 381.063 37.9183 335.21 34.5359C254.847 28.6065 174.477 57.0717 111.59 106.511C99.5481 115.979 72.1967 150.299 55.1963 143.16C57.8927 119.918 74.7166 103.312 90.3382 87.6493C108.989 68.9509 126.995 49.8043 147.479 33.0416C198.569 -8.75633 251.077 -22.1841 316.063 -23.2912C391.876 -24.5817 485.653 -14.2443 543.086 40.7166C555.284 52.392 565.561 65.9013 575.531 79.526C584.449 91.7109 600.506 113.86 594.76 130.296C585.108 157.858 505.03 101.79 493.26 94.1968C481.829 86.8275 470.391 79.8929 458.824 73.5356Z" fill="white"/>
</g>
<mask id="mask1_1606_84" style="mask-type:luminance" maskUnits="userSpaceOnUse" x="34" y="0" width="582" height="489">
<path d="M363.308 486.415C250.133 499.238 136.225 449.249 69.9142 356.464C44.6004 321.043 28.7683 283.979 35.7573 239.682C44.8314 182.201 84.3134 133.503 124.06 93.3618C163.42 53.615 206.821 18.3306 262.691 5.70429C384.336 -21.7965 494.829 54.3554 569.167 143.704C607.875 190.223 625.221 246.766 610.659 306.529C598.393 356.864 560.976 396.509 519.782 425.728C471.899 459.688 418.324 480.18 363.308 486.415Z" fill="white"/>
</mask>
<g mask="url(#mask1_1606_84)">
<path d="M427.343 236.951C458.288 243.777 488.37 259.141 508.501 284.686C539.187 323.631 535.635 373.111 516.753 417.816C503.808 448.461 481.326 475.106 452.562 489.79C439.752 496.331 425.944 500.447 412.068 503.836C366.725 514.907 319.344 518.487 273.457 510.261C227.564 502.036 183.198 481.62 148.837 448.719C123.082 424.051 102.469 389.459 105.824 353.074C108.758 321.281 129.474 294.072 153.476 274.369C226.925 214.076 340.847 217.866 427.343 236.951Z" fill="#363031"/>
</g>
<mask id="mask2_1606_84" style="mask-type:luminance" maskUnits="userSpaceOnUse" x="34" y="0" width="582" height="489">
<path d="M363.308 486.415C250.133 499.238 136.225 449.249 69.9142 356.464C44.6004 321.043 28.7683 283.979 35.7573 239.682C44.8314 182.201 84.3134 133.503 124.06 93.3618C163.42 53.615 206.821 18.3306 262.691 5.70429C384.336 -21.7965 494.829 54.3554 569.167 143.704C607.875 190.223 625.221 246.766 610.659 306.529C598.393 356.864 560.976 396.509 519.782 425.728C471.899 459.688 418.324 480.18 363.308 486.415Z" fill="white"/>
</mask>
<g mask="url(#mask2_1606_84)">
<path d="M323.895 409.563C325.939 416.667 329.254 423.14 335.536 428.187C350.696 440.365 373.762 436.656 380.071 416.953C383.535 406.147 381.355 394.315 379.263 383.468C377.667 375.175 377.382 363.554 370.305 357.72C364.124 352.626 354.404 351.396 347.449 347.267C339.279 342.41 332.113 335.87 326.462 328.229C322.665 323.087 313.612 310.495 314.807 303.655C311.771 321.063 304.408 337.71 293.582 351.675C295.45 349.264 306.181 356.877 307.608 358.243C321.477 371.514 318.957 392.379 323.895 409.563Z" fill="#EF6060"/>
</g>
<path d="M285.051 291.26C298.873 301.937 320.858 300.945 337.424 293.698C341.635 291.858 345.676 289.644 348.97 286.737C373.238 265.335 344.304 234.051 315.554 235.185C284.216 236.421 256.925 269.546 285.051 291.26Z" fill="#090406"/>
<path d="M300.394 263.291C307.499 258.177 307.132 244.695 294.805 246.902C283.992 248.838 280.684 264.201 293.5 265.166C296.244 265.37 298.567 264.609 300.394 263.291Z" fill="white"/>
<path d="M312.151 299.683C311.295 327.876 329.383 352.98 356.401 361.762C387.957 372.018 420.117 357.449 443.162 336.129C447.984 331.666 440.764 324.474 435.956 328.922C417.502 345.997 391.821 359.466 365.781 353.727C340.161 348.076 321.538 326.172 322.339 299.69C322.543 293.129 312.348 293.135 312.151 299.683Z" fill="#090406"/>
<path d="M310.542 297.869C310.141 324.704 298.846 354.8 268.628 357.822C244.931 360.192 218.306 351.845 204.009 332.196C200.192 326.946 191.349 332.026 195.213 337.337C212.465 361.048 244.781 372.445 273.736 367.596C306.82 362.053 320.275 328.297 320.73 297.869C320.832 291.308 310.644 291.308 310.542 297.869Z" fill="#090406"/>
<g opacity="0.5">
<path d="M402.343 45.9269C390.728 54.9874 383.726 68.6665 378.591 82.169C376.255 88.3021 386.103 90.9578 388.412 84.879C392.963 72.9251 399.3 61.1273 409.549 53.1331C414.711 49.1054 407.45 41.9399 402.343 45.9269Z" fill="#C19A6A"/>
</g>
<g opacity="0.5">
<path d="M257.048 92.6761C258.06 76.124 252.328 61.2766 245.739 46.4021C243.09 40.4184 234.308 45.6007 236.944 51.5437C242.839 64.8492 247.763 77.8899 246.86 92.6761C246.459 99.2235 256.654 99.1964 257.048 92.6761Z" fill="#C19A6A"/>
</g>
<g opacity="0.5">
<path d="M279.706 93.8238C290.791 123.023 297.888 152.534 298.391 183.886C298.5 190.433 308.688 190.454 308.579 183.886C308.056 151.637 300.945 121.202 289.528 91.1137C287.225 85.0417 277.37 87.677 279.706 93.8238Z" fill="#C19A6A"/>
</g>
<g opacity="0.5">
<path d="M326.747 77.2377C327.446 61.0728 326.55 45.098 324.376 29.0756C323.5 22.6096 313.679 25.3604 314.555 31.7857C316.606 46.8707 317.224 62.0304 316.566 77.2377C316.274 83.792 326.462 83.7784 326.747 77.2377Z" fill="#C19A6A"/>
</g>
<g opacity="0.5">
<path d="M352.469 82.393C341.045 114.146 334.205 148.167 336.583 182.011C337.038 188.518 347.232 188.566 346.771 182.011C344.448 148.968 351.145 116.109 362.297 85.1031C364.518 78.9223 354.676 76.2599 352.469 82.393Z" fill="#C19A6A"/>
</g>
<path d="M482.277 214.069C482.726 215.903 483.099 217.764 483.398 219.639C489.891 260.336 458.363 289.379 418.894 284.842C401.751 282.872 383.182 277.31 368.525 268.018C346.736 254.21 348.203 223.096 350.18 200.689C352.815 170.784 367.873 141.524 377.959 113.541C388.704 122.187 399.469 130.854 410.927 138.529C421.34 145.504 432.309 151.658 442.408 159.088C461.005 172.781 476.864 191.785 482.277 214.069Z" fill="#363031"/>
<path d="M147.017 214.069C146.569 215.903 146.195 217.764 145.896 219.639C139.403 260.336 170.932 289.379 210.4 284.842C227.543 282.872 246.112 277.31 260.769 268.018C282.558 254.21 281.091 223.096 279.114 200.689C276.479 170.784 261.421 141.524 251.335 113.541C240.59 122.187 229.825 130.854 218.367 138.529C207.955 145.504 196.986 151.658 186.886 159.088C168.283 172.781 152.43 191.785 147.017 214.069Z" fill="#363031"/>
<path d="M523.186 28.5322C551.359 37.6335 580.13 47.9913 604.86 64.5977C639.73 88.0233 644.022 126.69 630.296 163.87C620.8 189.584 587.302 268.46 550.266 239.532C543.243 234.045 538.284 226.397 533.618 218.81C510.607 181.427 490.971 141.938 471.431 102.674C457.263 74.2016 448.202 47.4276 424.953 23.4314C457.269 14.2283 490.937 18.1133 523.186 28.5322Z" fill="#363031"/>
<path d="M114.368 28.5322C86.1951 37.6335 57.4242 47.9913 32.6945 64.5977C-2.17558 88.0233 -6.46809 126.69 7.25854 163.87C16.7538 189.584 50.2518 268.46 87.2886 239.532C94.3115 234.045 99.2696 226.397 103.936 218.81C126.947 181.427 146.583 141.938 166.123 102.674C180.291 74.2016 189.352 47.4276 212.601 23.4314C180.278 14.2283 146.617 18.1133 114.368 28.5322Z" fill="#363031"/>
<path d="M437.069 168.461C421.142 159.875 400.624 166.015 386.897 177.8C383.406 180.795 380.18 184.164 377.843 188.123C360.625 217.288 396.365 245.115 423.241 237.263C452.541 228.706 469.474 185.936 437.069 168.461Z" fill="white"/>
<path d="M387.915 206.577C391.855 217.906 404.631 224.087 416.619 224.474C419.661 224.569 422.752 224.372 425.665 223.482C447.135 216.935 442.129 187.342 425.475 179.144C407.327 170.206 379.901 183.525 387.915 206.577Z" fill="#090406"/>
<path d="M404.217 195.459C412.51 188.504 412.089 170.152 397.69 173.154C385.07 175.789 381.199 196.695 396.168 198.006C399.367 198.285 402.084 197.252 404.217 195.459Z" fill="white"/>
<path d="M243.898 168.461C227.971 159.875 207.453 166.015 193.726 177.8C190.235 180.795 187.009 184.164 184.672 188.123C167.455 217.288 203.194 245.115 230.07 237.263C259.371 228.706 276.303 185.936 243.898 168.461Z" fill="white"/>
<path d="M194.745 206.577C198.684 217.906 211.46 224.087 223.448 224.474C226.49 224.569 229.581 224.372 232.495 223.482C253.964 216.935 248.958 187.342 232.304 179.144C214.156 170.206 186.73 183.525 194.745 206.577Z" fill="#090406"/>
<path d="M211.046 195.459C219.339 188.504 218.918 170.152 204.519 173.154C191.899 175.789 188.028 196.695 202.997 198.006C206.196 198.285 208.913 197.252 211.046 195.459Z" fill="white"/>
<g opacity="0.5">
<path d="M384.079 289.61C390.572 286.554 397.317 284.197 404.231 282.302C410.547 280.57 407.865 270.742 401.521 272.481C393.751 274.613 386.225 277.384 378.931 280.814C373.008 283.606 378.177 292.388 384.079 289.61Z" fill="#090406"/>
<path d="M396.073 323.258C404.278 320.072 412.768 317.763 421.509 316.656C427.928 315.848 428.009 305.646 421.509 306.468C411.804 307.691 402.499 309.884 393.37 313.43C387.318 315.78 389.947 325.635 396.073 323.258Z" fill="#090406"/>
<path d="M430.387 289.202C436.391 287.667 442.436 286.642 448.616 286.18C455.116 285.697 455.171 275.503 448.616 275.992C441.539 276.521 434.557 277.622 427.683 279.374C421.333 280.997 424.022 290.825 430.387 289.202Z" fill="#090406"/>
<path d="M244.768 280.006C237.481 276.569 229.948 273.805 222.178 271.672C215.848 269.933 213.145 279.761 219.468 281.493C226.389 283.388 233.127 285.738 239.62 288.802C245.522 291.579 250.705 282.797 244.768 280.006Z" fill="#090406"/>
<path d="M230.342 312.628C221.213 309.083 211.909 306.889 202.196 305.666C195.71 304.844 195.764 315.046 202.196 315.854C210.937 316.955 219.427 319.271 227.632 322.456C233.752 324.826 236.4 314.978 230.342 312.628Z" fill="#090406"/>
<path d="M196.029 278.572C189.155 276.82 182.166 275.72 175.096 275.19C168.555 274.701 168.589 284.889 175.096 285.378C181.277 285.84 187.321 286.865 193.326 288.394C199.676 290.017 202.386 280.189 196.029 278.572Z" fill="#090406"/>
</g>
<g opacity="0.5">
<path d="M358.167 414.895C362.065 393.839 354.669 375.026 346.199 356.083C343.53 350.106 334.748 355.281 337.404 361.224C344.651 377.423 351.694 394.077 348.339 412.185C347.157 418.596 356.978 421.347 358.167 414.895Z" fill="#EF6060"/>
</g>
</svg>
