<svg width="690" height="676" viewBox="0 0 690 676" fill="none" xmlns="http://www.w3.org/2000/svg">
<path d="M166.896 674.405C146.785 674.31 82.1458 669.128 95.2136 632.77C97.8692 625.374 108.247 618.724 112.88 612.088C104.641 611.328 98.7454 602.641 98.9356 594.375C99.1258 586.102 104.064 578.597 110.115 572.953C116.167 567.309 123.38 563.091 129.921 558.024C130.831 557.318 131.782 556.516 132.06 555.396C132.413 553.976 131.571 552.57 130.838 551.314C120.392 533.288 128.508 507.125 147.322 498.173C141.773 491.293 142.513 480.785 147.295 473.348C152.076 465.911 160.104 461.136 168.37 458.005C167.087 442.098 180.025 426.382 195.885 424.582C196.326 377.486 224.819 337.318 268.315 320.752C290.096 312.453 313.57 311.57 336.581 312.242C359.524 312.914 386.787 313.118 408.379 322.892C430.012 332.693 450.985 354.183 468.026 371.509C482.133 385.847 505.226 395.43 500.791 420.058C512.901 422.952 524.774 428.84 532.218 438.818C539.669 448.795 541.713 463.35 534.935 473.803C547.968 477.138 561.07 483.231 568.596 494.383C576.121 505.529 575.931 522.597 565.356 530.91C576.658 544.372 588.646 559.926 586.9 577.415C585.99 586.483 581.358 594.823 575.51 601.812C587.783 606.804 599.058 615.491 604.566 627.547C610.638 640.846 606.25 656.25 596.368 666.438C583.776 679.418 573.024 675.417 557.049 674.31C514.708 671.369 470.94 674.704 428.477 674.785C341.295 674.935 254.092 674.813 166.896 674.405Z" fill="#514944"/>
<mask id="mask0_1606_619" style="mask-type:luminance" maskUnits="userSpaceOnUse" x="93" y="312" width="515" height="364">
<path d="M166.896 674.405C146.785 674.31 82.1458 669.128 95.2136 632.77C97.8692 625.374 108.247 618.724 112.88 612.088C104.641 611.328 98.7454 602.641 98.9356 594.375C99.1258 586.102 104.064 578.597 110.115 572.953C116.167 567.309 123.38 563.091 129.921 558.024C130.831 557.318 131.782 556.516 132.06 555.396C132.413 553.976 131.571 552.57 130.838 551.314C120.392 533.288 128.508 507.125 147.322 498.173C141.773 491.293 142.513 480.785 147.295 473.348C152.076 465.911 160.104 461.136 168.37 458.005C167.087 442.098 180.025 426.382 195.885 424.582C196.326 377.486 224.819 337.318 268.315 320.752C290.096 312.453 313.57 311.57 336.581 312.242C359.524 312.914 386.787 313.118 408.379 322.892C430.012 332.693 450.985 354.183 468.026 371.509C482.133 385.847 505.226 395.43 500.791 420.058C512.901 422.952 524.774 428.84 532.218 438.818C539.669 448.795 541.713 463.35 534.935 473.803C547.968 477.138 561.07 483.231 568.596 494.383C576.121 505.529 575.931 522.597 565.356 530.91C576.658 544.372 588.646 559.926 586.9 577.415C585.99 586.483 581.358 594.823 575.51 601.812C587.783 606.804 599.058 615.491 604.566 627.547C610.638 640.846 606.25 656.25 596.368 666.438C583.776 679.418 573.024 675.417 557.049 674.31C514.708 671.369 470.94 674.704 428.477 674.785C341.295 674.935 254.092 674.813 166.896 674.405Z" fill="white"/>
</mask>
<g mask="url(#mask0_1606_619)">
<g opacity="0.5">
<path opacity="0.5" d="M383.5 520.593C390.143 520.023 396.555 517.347 401.112 512.524C407.15 518.026 414.866 522.549 423.003 521.857C431.14 521.164 438.869 513.339 436.94 505.4C442.734 507.926 448.751 510.5 455.068 510.392C461.384 510.283 468.108 506.704 469.786 500.611C470.391 498.404 470.696 495.531 472.89 494.852C474.405 494.383 475.947 495.341 477.325 496.129C483.438 499.64 491.425 500.401 497.491 496.808C503.556 493.215 506.701 484.786 503.339 478.592C514.817 483.04 528.204 475.834 534.697 465.381C541.19 454.921 542.393 442.118 543.065 429.825C544.41 405.089 540.661 377.459 519.347 361.497C508.874 353.653 496.173 350.494 483.689 348.436C449.756 342.847 415.206 344.266 381.015 347.377C339.998 351.106 299.151 357.246 258.711 365.77C219.99 373.927 180.956 368.29 145.169 390.194C101.979 416.642 150.189 478.055 191.212 467.575C190.988 476.948 196.877 486.185 205.475 489.934C214.074 493.683 224.846 491.721 231.57 485.18C232.528 495.775 246.418 502.683 255.444 497.059C257.753 495.619 259.879 493.5 262.596 493.337C265.49 493.16 267.948 495.252 270.441 496.733C279.814 502.289 293.432 498.662 298.791 489.18C308.517 505.651 332.622 511.499 348.814 501.304C354.465 509.869 362.785 516.973 372.688 519.636C376.179 520.58 379.874 520.899 383.5 520.593Z" fill="#514944"/>
</g>
</g>
<mask id="mask1_1606_619" style="mask-type:luminance" maskUnits="userSpaceOnUse" x="93" y="312" width="515" height="364">
<path d="M166.896 674.405C146.785 674.31 82.1458 669.128 95.2136 632.77C97.8692 625.374 108.247 618.724 112.88 612.088C104.641 611.328 98.7454 602.641 98.9356 594.375C99.1258 586.102 104.064 578.597 110.115 572.953C116.167 567.309 123.38 563.091 129.921 558.024C130.831 557.318 131.782 556.516 132.06 555.396C132.413 553.976 131.571 552.57 130.838 551.314C120.392 533.288 128.508 507.125 147.322 498.173C141.773 491.293 142.513 480.785 147.295 473.348C152.076 465.911 160.104 461.136 168.37 458.005C167.087 442.098 180.025 426.382 195.885 424.582C196.326 377.486 224.819 337.318 268.315 320.752C290.096 312.453 313.57 311.57 336.581 312.242C359.524 312.914 386.787 313.118 408.379 322.892C430.012 332.693 450.985 354.183 468.026 371.509C482.133 385.847 505.226 395.43 500.791 420.058C512.901 422.952 524.774 428.84 532.218 438.818C539.669 448.795 541.713 463.35 534.935 473.803C547.968 477.138 561.07 483.231 568.596 494.383C576.121 505.529 575.931 522.597 565.356 530.91C576.658 544.372 588.646 559.926 586.9 577.415C585.99 586.483 581.358 594.823 575.51 601.812C587.783 606.804 599.058 615.491 604.566 627.547C610.638 640.846 606.25 656.25 596.368 666.438C583.776 679.418 573.024 675.417 557.049 674.31C514.708 671.369 470.94 674.704 428.477 674.785C341.295 674.935 254.092 674.813 166.896 674.405Z" fill="white"/>
</mask>
<g mask="url(#mask1_1606_619)">
<g opacity="0.5">
<path d="M254.867 473.355C263.961 464.458 271.595 464.003 277.776 471.99C281.58 476.011 283.57 480.833 283.74 486.437C283.835 488.753 285.268 490.661 287.482 491.347C295.225 493.765 303.334 497.677 306.69 505.468C310.514 514.359 305.854 521.993 300.72 529.674C297.065 535.142 305.888 540.25 309.515 534.816C316.015 525.09 322.311 512.776 317.027 501.148C312.368 490.885 300.366 484.691 290.185 481.519C291.435 483.156 292.678 484.793 293.928 486.43C293.398 473.348 284.806 460.009 271.806 455.988C259.879 452.293 248.204 458.752 245.046 470.632C243.354 476.989 253.176 479.692 254.867 473.355Z" fill="#514944"/>
</g>
<g opacity="0.5">
<path d="M496.254 514.291C488.511 525.959 480.361 527.569 471.81 519.12C468.441 516.369 466.179 512.803 465.031 508.436C464.366 506.188 462.403 504.816 460.121 504.694C453.763 504.368 445.701 502.907 440.458 498.914C431.112 491.782 434.712 480.052 438.047 470.7C440.254 464.512 430.412 461.85 428.225 467.99C424.313 478.966 421.135 492.876 429.394 502.71C436.586 511.282 449.477 514.345 460.121 514.882C458.484 513.639 456.847 512.389 455.21 511.139C458.912 523.664 470.668 534.47 484.185 535.142C496.709 535.767 506.286 526.578 506.442 514.291C506.524 507.736 496.336 507.73 496.254 514.291Z" fill="#514944"/>
</g>
<g opacity="0.5">
<path d="M254.948 521.517C251.233 507.573 235.598 499.953 222.672 507.349C209.156 515.085 209.238 532.846 217.388 544.461C221.124 549.786 229.96 544.705 226.184 539.319C221.749 532.996 219.168 523.188 225.973 517.374C233.132 511.261 242.899 515.9 245.12 524.227C246.811 530.551 256.639 527.868 254.948 521.517Z" fill="#514944"/>
</g>
<g opacity="0.5">
<path d="M414.525 550.832C421.426 554.384 425.23 563.492 421.317 570.671C417.174 578.285 405.777 579.392 399.529 573.932C394.611 569.639 387.371 576.811 392.322 581.138C403.047 590.497 421.161 589.553 429.325 577.09C437.048 565.306 431.96 548.36 419.667 542.029C413.846 539.034 408.684 547.823 414.525 550.832Z" fill="#514944"/>
</g>
<g opacity="0.5">
<path d="M318.82 597.038C313.604 603.123 303.375 604.686 297.385 598.62C291.591 592.752 293.092 581.837 299.673 577.205C304.992 573.456 299.904 564.62 294.532 568.41C283.094 576.472 279.576 593.778 289.214 604.767C298.655 615.532 316.81 614.989 326.02 604.251C330.271 599.286 323.099 592.053 318.82 597.038Z" fill="#514944"/>
</g>
<g opacity="0.5">
<path d="M176.806 527.324C168.479 523.025 157.646 525.973 151.58 533.206C144.245 541.948 148.66 552.373 153.869 560.877C154.881 558.384 155.9 555.892 156.912 553.392C134.607 561.672 139.443 595.992 163.922 595.985C170.476 595.985 170.489 585.797 163.922 585.797C151.411 585.804 147.858 567.587 159.622 563.22C162.604 562.113 164.512 558.751 162.665 555.735C159.445 550.478 158.019 548.726 160.532 542.511C162.319 538.083 165.599 532.996 171.664 536.127C177.478 539.122 182.64 530.34 176.806 527.324Z" fill="#514944"/>
</g>
<g opacity="0.5">
<path d="M460.664 598.729C459.469 607.674 466.777 616.585 475.009 619.608C485.421 623.432 493.673 615.981 499.772 608.401C497.368 608.401 494.97 608.401 492.566 608.401C507.556 626.21 537.753 609.175 529.847 587.128C527.653 581.002 517.805 583.644 520.026 589.838C524.556 602.471 508.181 611.186 499.772 601.195C498.129 599.245 494.189 599.177 492.566 601.195C489.197 605.392 488.171 606.445 482.398 607.83C476.713 609.189 469.65 607.783 470.859 598.729C471.721 592.25 461.52 592.317 460.664 598.729Z" fill="#514944"/>
</g>
</g>
<path d="M389.98 444.149C388.452 443.545 386.849 442.845 385.232 443.13C383.541 443.429 382.244 444.733 380.974 445.888C371.16 454.779 361.06 453.855 348.984 453.794C344.494 453.773 340.589 455.234 336.5 453.06C331.175 450.235 331.318 441.215 324.689 440.026C322.121 439.564 319.601 440.848 317.265 442.016C308.816 446.227 299.483 449.372 290.077 448.543C280.67 447.715 271.249 442.179 267.962 433.329C261.17 440.712 249.372 442.92 240.373 438.498C231.367 434.077 225.906 423.393 227.597 413.504C218.706 418.699 207.139 418.992 197.997 414.244C188.855 409.496 182.437 399.872 181.574 389.609C172.955 393.603 162.122 392.285 154.712 386.336C147.302 380.386 143.668 370.096 145.706 360.811C137.678 359.405 130.587 353.489 127.768 345.842C124.861 337.963 126.838 329.704 131.3 322.912C125.466 319.883 117.906 313.03 113.627 308.044C110.652 304.58 108.954 299.643 110.51 295.343C111.209 293.414 112.527 291.689 112.812 289.658C113.356 285.794 110.136 282.574 107.65 279.559C101.633 272.244 98.8818 262.341 100.267 252.968C101.653 243.595 107.154 234.908 115.033 229.651C107.426 216.257 99.8802 206.606 108.262 191.412C112.615 183.526 119.169 177.074 123.924 169.426C125.296 167.219 126.552 164.774 126.498 162.172C126.444 159.666 125.18 157.37 124.386 154.993C119.835 141.348 131.008 127.554 142.738 119.22C144.721 117.807 146.881 116.292 147.635 113.976C148.178 112.312 147.9 110.506 147.743 108.753C146.786 98.0288 151.119 86.9645 159.093 79.731C167.067 72.5044 178.504 69.2782 189.086 71.275C187.13 63.111 191.212 54.3086 197.726 49.0109C204.246 43.7199 212.784 41.4989 221.165 40.9352C224.289 40.7247 227.651 40.6499 230.185 38.8024C232.202 37.3286 233.336 34.9785 234.661 32.8594C243.164 19.2483 263.044 14.3241 276.92 22.3998C281.458 12.239 291.408 4.68628 302.424 3.04262C313.876 1.33782 324.24 6.10579 332.432 13.7332C340.358 3.57238 356.312 -3.71547 368.578 3.68781C371.024 5.16168 373.448 7.15175 376.301 7.05666C378.508 6.98195 380.437 5.66433 382.346 4.55723C396.066 -3.36903 415.029 -0.720196 426.046 10.67C428.932 13.6517 431.459 17.2582 435.276 18.8815C438.387 20.1992 441.891 20.0022 445.267 20.0701C457.866 20.335 472.435 27.4055 473.311 39.9775C492.173 37.2539 511.183 54.9742 509.784 73.9851C519.585 73.6115 529.461 78.1418 535.573 85.8168C541.686 93.4917 543.894 104.121 541.34 113.596C557.722 114.187 572.597 128.029 574.369 144.323C574.566 146.143 574.668 148.106 575.823 149.532C579.783 154.416 584.028 154.959 586.174 161.704C588.076 167.681 588.028 177.699 586.69 183.737C586.153 186.169 585.338 188.695 586.018 191.093C586.595 193.13 588.157 194.706 589.468 196.363C595.16 203.57 596.572 213.513 594.8 222.526C593.027 231.539 588.374 239.737 582.961 247.154C581.766 248.791 580.462 250.645 580.747 252.649C580.985 254.326 582.282 255.623 583.375 256.921C589.937 264.657 590.854 276.679 585.529 285.318C584.422 287.111 583.05 288.85 582.764 290.935C582.459 293.17 583.457 295.343 584.238 297.455C588.035 307.698 586.887 319.658 581.202 328.991C578.696 333.107 575.327 336.829 574.036 341.468C572.637 346.494 573.873 351.853 573.473 357.055C572.583 368.615 562.504 378.769 550.951 379.741C548.981 379.904 546.855 379.876 545.245 381.024C543.052 382.573 542.678 385.595 542.033 388.197C538.575 402.066 520.251 409.741 507.944 402.473C501.206 412.587 492.478 421.729 481.461 426.87C470.452 432.012 456.929 432.671 446.381 426.646C434.529 444.278 409.826 451.973 389.98 444.149Z" fill="#514944"/>
<mask id="mask2_1606_619" style="mask-type:luminance" maskUnits="userSpaceOnUse" x="99" y="0" width="497" height="455">
<path d="M389.98 444.149C388.452 443.545 386.849 442.845 385.232 443.13C383.541 443.429 382.244 444.733 380.974 445.888C371.16 454.779 361.06 453.855 348.984 453.794C344.494 453.773 340.589 455.234 336.5 453.06C331.175 450.235 331.318 441.215 324.689 440.026C322.121 439.564 319.601 440.848 317.265 442.016C308.816 446.227 299.483 449.372 290.077 448.543C280.67 447.715 271.249 442.179 267.962 433.329C261.17 440.712 249.372 442.92 240.373 438.498C231.367 434.077 225.906 423.393 227.597 413.504C218.706 418.699 207.139 418.992 197.997 414.244C188.855 409.496 182.437 399.872 181.574 389.609C172.955 393.603 162.122 392.285 154.712 386.336C147.302 380.386 143.668 370.096 145.706 360.811C137.678 359.405 130.587 353.489 127.768 345.842C124.861 337.963 126.838 329.704 131.3 322.912C125.466 319.883 117.906 313.03 113.627 308.044C110.652 304.58 108.954 299.643 110.51 295.343C111.209 293.414 112.527 291.689 112.812 289.658C113.356 285.794 110.136 282.574 107.65 279.559C101.633 272.244 98.8818 262.341 100.267 252.968C101.653 243.595 107.154 234.908 115.033 229.651C107.426 216.257 99.8802 206.606 108.262 191.412C112.615 183.526 119.169 177.074 123.924 169.426C125.296 167.219 126.552 164.774 126.498 162.172C126.444 159.666 125.18 157.37 124.386 154.993C119.835 141.348 131.008 127.554 142.738 119.22C144.721 117.807 146.881 116.292 147.635 113.976C148.178 112.312 147.9 110.506 147.743 108.753C146.786 98.0288 151.119 86.9645 159.093 79.731C167.067 72.5044 178.504 69.2782 189.086 71.275C187.13 63.111 191.212 54.3086 197.726 49.0109C204.246 43.7199 212.784 41.4989 221.165 40.9352C224.289 40.7247 227.651 40.6499 230.185 38.8024C232.202 37.3286 233.336 34.9785 234.661 32.8594C243.164 19.2483 263.044 14.3241 276.92 22.3998C281.458 12.239 291.408 4.68628 302.424 3.04262C313.876 1.33782 324.24 6.10579 332.432 13.7332C340.358 3.57238 356.312 -3.71547 368.578 3.68781C371.024 5.16168 373.448 7.15175 376.301 7.05666C378.508 6.98195 380.437 5.66433 382.346 4.55723C396.066 -3.36903 415.029 -0.720196 426.046 10.67C428.932 13.6517 431.459 17.2582 435.276 18.8815C438.387 20.1992 441.891 20.0022 445.267 20.0701C457.866 20.335 472.435 27.4055 473.311 39.9775C492.173 37.2539 511.183 54.9742 509.784 73.9851C519.585 73.6115 529.461 78.1418 535.573 85.8168C541.686 93.4917 543.894 104.121 541.34 113.596C557.722 114.187 572.597 128.029 574.369 144.323C574.566 146.143 574.668 148.106 575.823 149.532C579.783 154.416 584.028 154.959 586.174 161.704C588.076 167.681 588.028 177.699 586.69 183.737C586.153 186.169 585.338 188.695 586.018 191.093C586.595 193.13 588.157 194.706 589.468 196.363C595.16 203.57 596.572 213.513 594.8 222.526C593.027 231.539 588.374 239.737 582.961 247.154C581.766 248.791 580.462 250.645 580.747 252.649C580.985 254.326 582.282 255.623 583.375 256.921C589.937 264.657 590.854 276.679 585.529 285.318C584.422 287.111 583.05 288.85 582.764 290.935C582.459 293.17 583.457 295.343 584.238 297.455C588.035 307.698 586.887 319.658 581.202 328.991C578.696 333.107 575.327 336.829 574.036 341.468C572.637 346.494 573.873 351.853 573.473 357.055C572.583 368.615 562.504 378.769 550.951 379.741C548.981 379.904 546.855 379.876 545.245 381.024C543.052 382.573 542.678 385.595 542.033 388.197C538.575 402.066 520.251 409.741 507.944 402.473C501.206 412.587 492.478 421.729 481.461 426.87C470.452 432.012 456.929 432.671 446.381 426.646C434.529 444.278 409.826 451.973 389.98 444.149Z" fill="white"/>
</mask>
<g mask="url(#mask2_1606_619)">
<path opacity="0.1" d="M465.663 71.9614C457.581 78.0878 446.381 80.1593 436.777 76.7769C424.728 72.5387 416.102 60.0483 416.401 47.2725C404.067 49.8603 390.558 46.0023 381.443 37.295C366.412 49.9145 342.063 49.5003 327.473 36.3781C321.062 54.2139 301.324 56.7133 286.069 48.2708C284.392 47.3403 282.667 46.2537 280.745 46.2945C278.578 46.3352 276.737 47.7954 274.978 49.0655C263.961 57.0122 249.216 59.5388 236.182 55.7217C228.202 77.2659 204.891 92.0453 182.002 90.0689C184.76 104.631 171.665 119.994 156.852 119.587C151.785 127.466 145.108 134.298 137.345 139.542C133.005 142.476 127.68 144.989 122.667 143.454C116.365 141.518 113.566 134.176 112.744 127.642C109.471 101.534 124.427 75.7173 145.108 59.4437C160.988 46.9532 179.863 39.1629 198.976 33.0908C206.223 30.7883 214.298 30.245 221.301 27.6165C228.996 24.7231 236.067 18.3317 243.382 14.4399C275.583 -2.67591 311.635 -8.71398 347.775 -9.36601C412.183 -10.5274 491.847 -1.20885 540.64 48.3184C551.005 58.8392 559.733 71.0173 568.202 83.2904C575.089 93.2679 585.23 99.8629 591.635 110.153C596.355 117.739 598.406 127.411 595.275 135.786C592.151 144.16 583.07 150.45 574.295 148.745C565.519 147.04 559.38 136.078 563.808 128.308C550.353 129.856 536.49 120.314 533.135 107.191C526.078 108.088 518.655 108.944 512.06 106.275C505.465 103.605 500.248 96.1138 502.659 89.4169C489.238 87.6849 476.959 78.7737 471.138 66.5549C469.562 68.5857 467.715 70.406 465.663 71.9614Z" fill="white"/>
</g>
<mask id="mask3_1606_619" style="mask-type:luminance" maskUnits="userSpaceOnUse" x="99" y="0" width="497" height="455">
<path d="M389.98 444.149C388.452 443.545 386.849 442.845 385.232 443.13C383.541 443.429 382.244 444.733 380.974 445.888C371.16 454.779 361.06 453.855 348.984 453.794C344.494 453.773 340.589 455.234 336.5 453.06C331.175 450.235 331.318 441.215 324.689 440.026C322.121 439.564 319.601 440.848 317.265 442.016C308.816 446.227 299.483 449.372 290.077 448.543C280.67 447.715 271.249 442.179 267.962 433.329C261.17 440.712 249.372 442.92 240.373 438.498C231.367 434.077 225.906 423.393 227.597 413.504C218.706 418.699 207.139 418.992 197.997 414.244C188.855 409.496 182.437 399.872 181.574 389.609C172.955 393.603 162.122 392.285 154.712 386.336C147.302 380.386 143.668 370.096 145.706 360.811C137.678 359.405 130.587 353.489 127.768 345.842C124.861 337.963 126.838 329.704 131.3 322.912C125.466 319.883 117.906 313.03 113.627 308.044C110.652 304.58 108.954 299.643 110.51 295.343C111.209 293.414 112.527 291.689 112.812 289.658C113.356 285.794 110.136 282.574 107.65 279.559C101.633 272.244 98.8818 262.341 100.267 252.968C101.653 243.595 107.154 234.908 115.033 229.651C107.426 216.257 99.8802 206.606 108.262 191.412C112.615 183.526 119.169 177.074 123.924 169.426C125.296 167.219 126.552 164.774 126.498 162.172C126.444 159.666 125.18 157.37 124.386 154.993C119.835 141.348 131.008 127.554 142.738 119.22C144.721 117.807 146.881 116.292 147.635 113.976C148.178 112.312 147.9 110.506 147.743 108.753C146.786 98.0288 151.119 86.9645 159.093 79.731C167.067 72.5044 178.504 69.2782 189.086 71.275C187.13 63.111 191.212 54.3086 197.726 49.0109C204.246 43.7199 212.784 41.4989 221.165 40.9352C224.289 40.7247 227.651 40.6499 230.185 38.8024C232.202 37.3286 233.336 34.9785 234.661 32.8594C243.164 19.2483 263.044 14.3241 276.92 22.3998C281.458 12.239 291.408 4.68628 302.424 3.04262C313.876 1.33782 324.24 6.10579 332.432 13.7332C340.358 3.57238 356.312 -3.71547 368.578 3.68781C371.024 5.16168 373.448 7.15175 376.301 7.05666C378.508 6.98195 380.437 5.66433 382.346 4.55723C396.066 -3.36903 415.029 -0.720196 426.046 10.67C428.932 13.6517 431.459 17.2582 435.276 18.8815C438.387 20.1992 441.891 20.0022 445.267 20.0701C457.866 20.335 472.435 27.4055 473.311 39.9775C492.173 37.2539 511.183 54.9742 509.784 73.9851C519.585 73.6115 529.461 78.1418 535.573 85.8168C541.686 93.4917 543.894 104.121 541.34 113.596C557.722 114.187 572.597 128.029 574.369 144.323C574.566 146.143 574.668 148.106 575.823 149.532C579.783 154.416 584.028 154.959 586.174 161.704C588.076 167.681 588.028 177.699 586.69 183.737C586.153 186.169 585.338 188.695 586.018 191.093C586.595 193.13 588.157 194.706 589.468 196.363C595.16 203.57 596.572 213.513 594.8 222.526C593.027 231.539 588.374 239.737 582.961 247.154C581.766 248.791 580.462 250.645 580.747 252.649C580.985 254.326 582.282 255.623 583.375 256.921C589.937 264.657 590.854 276.679 585.529 285.318C584.422 287.111 583.05 288.85 582.764 290.935C582.459 293.17 583.457 295.343 584.238 297.455C588.035 307.698 586.887 319.658 581.202 328.991C578.696 333.107 575.327 336.829 574.036 341.468C572.637 346.494 573.873 351.853 573.473 357.055C572.583 368.615 562.504 378.769 550.951 379.741C548.981 379.904 546.855 379.876 545.245 381.024C543.052 382.573 542.678 385.595 542.033 388.197C538.575 402.066 520.251 409.741 507.944 402.473C501.206 412.587 492.478 421.729 481.461 426.87C470.452 432.012 456.929 432.671 446.381 426.646C434.529 444.278 409.826 451.973 389.98 444.149Z" fill="white"/>
</mask>
<g mask="url(#mask3_1606_619)">
<path opacity="0.5" d="M375.431 180.769C384.594 182.059 397.709 187.12 401.159 196.472C410.763 190.237 423.186 188.546 434.101 191.989C445.015 195.433 454.218 203.943 458.504 214.566C480.055 212.766 500.343 234.222 497.341 255.637C505.668 256.608 514.233 257.654 521.602 261.655C528.978 265.649 534.975 273.351 534.418 281.718C534.276 283.797 533.76 285.936 534.425 287.906C535.193 290.175 537.325 291.628 539.146 293.183C550.991 303.303 550.896 324.25 538.962 334.268C552.37 340.333 560.119 362.815 549.707 374.463C547.934 376.446 545.734 378.104 544.45 380.427C541.7 385.405 543.934 391.518 544.226 397.196C544.837 409.116 535.125 420.649 523.273 422.075C519.34 422.544 514.749 422.286 512.175 425.288C510.545 427.19 510.239 429.927 508.785 431.971C504.5 437.982 494.97 434.07 487.812 435.89C477.99 438.383 475.226 449.542 467.089 454.12C456.928 459.832 441.001 462.61 429.333 465.639C390.815 475.617 350.559 478.843 311.573 471.426C298.118 471.426 280.663 465.415 267.119 462.603C249.691 458.99 232.718 447.566 216.695 439.7C205.495 434.199 194.024 429.519 184.135 421.824C178.382 417.348 172.459 412.668 169.084 406.209C165.64 399.607 166.734 392.231 164.268 385.684C161.415 378.111 155.608 372.439 153.788 364.112C152.008 355.969 153.591 346.555 159.867 341.067C161.511 339.627 163.487 338.425 164.472 336.476C165.64 334.16 165.117 331.388 164.567 328.855C162.645 319.998 160.675 310.849 162.38 301.952C164.085 293.054 170.49 284.388 179.448 283.002C178.151 274.682 181.397 265.791 187.755 260.269C194.112 254.747 203.37 252.778 211.425 255.23C209.985 243.276 216.037 230.744 226.299 224.442C228.656 222.995 231.244 221.827 233.193 219.857C235.075 217.955 236.209 215.462 237.561 213.153C243.273 203.413 253.671 196.574 264.871 195.182C276.071 193.789 287.828 197.871 295.754 205.913C301.419 198.258 307.851 190.658 316.579 186.841C325.306 183.024 336.866 184.131 342.599 191.738C351.068 183.289 363.593 179.105 375.431 180.769Z" fill="#514944"/>
</g>
<path d="M319.167 276.305C327.358 283.341 335.827 290.052 344.548 296.416C345.289 296.959 346.076 297.509 346.987 297.611C348.277 297.754 349.466 296.966 350.525 296.212C362.438 287.729 389.104 271.306 388.153 254.516C387.1 235.885 361.956 223.959 345.934 224.59C332.574 225.12 318.854 231.45 310.486 242.025C300.835 254.237 307.233 265.967 317.897 275.204C318.318 275.578 318.745 275.945 319.167 276.305Z" fill="#090406"/>
<path d="M330.767 252.697C337.872 247.582 337.505 234.1 325.178 236.307C314.365 238.243 311.057 253.607 323.873 254.571C326.611 254.775 328.94 254.014 330.767 252.697Z" fill="white"/>
<path d="M342.966 282.35C342.26 305.721 357.304 326.593 379.718 333.84C405.772 342.269 432.295 330.322 451.333 312.71C456.155 308.248 448.935 301.055 444.126 305.504C429.333 319.19 408.747 330.037 387.861 325.472C367.377 320.99 352.516 303.5 353.154 282.35C353.351 275.789 343.163 275.796 342.966 282.35Z" fill="#090406"/>
<path d="M341.655 280.869C341.336 302.257 332.452 326.389 308.32 328.793C289.418 330.675 268.016 324.046 256.606 308.363C252.789 303.113 243.945 308.193 247.81 313.505C262.114 333.161 288.841 342.676 312.857 338.594C340.222 333.949 351.463 306.095 351.843 280.869C351.938 274.308 341.75 274.308 341.655 280.869Z" fill="#090406"/>
<path d="M471.994 162.111C458.111 154.626 440.221 159.978 428.253 170.255C425.21 172.87 422.398 175.804 420.361 179.254C405.35 204.676 436.505 228.938 459.938 222.091C485.483 214.634 500.248 177.345 471.994 162.111Z" fill="white"/>
<path d="M429.15 195.337C432.586 205.213 443.725 210.605 454.171 210.938C456.827 211.02 459.517 210.85 462.057 210.069C480.776 204.364 476.408 178.561 461.894 171.416C446.069 163.632 422.161 175.246 429.15 195.337Z" fill="#090406"/>
<path d="M443.358 185.645C450.592 179.58 450.218 163.578 437.666 166.2C426.663 168.495 423.295 186.718 436.335 187.859C439.127 188.111 441.497 187.207 443.358 185.645Z" fill="white"/>
<path d="M276.295 162.111C262.412 154.626 244.522 159.978 232.555 170.255C229.512 172.87 226.7 175.804 224.662 179.254C209.652 204.676 240.807 228.938 264.239 222.091C289.791 214.634 304.55 177.345 276.295 162.111Z" fill="white"/>
<path d="M233.451 195.337C236.888 205.213 248.027 210.605 258.473 210.938C261.129 211.02 263.818 210.85 266.359 210.069C285.077 204.364 280.71 178.561 266.196 171.416C250.37 163.632 226.462 175.246 233.451 195.337Z" fill="#090406"/>
<path d="M247.66 185.645C254.887 179.58 254.52 163.578 241.968 166.2C230.965 168.495 227.596 186.718 240.637 187.859C243.435 188.111 245.799 187.207 247.66 185.645Z" fill="white"/>
<g opacity="0.5">
<path d="M414.485 256.628C420.503 253.592 426.731 251.222 433.197 249.32C439.473 247.473 436.803 237.638 430.487 239.499C423.199 241.645 416.122 244.409 409.343 247.832C403.489 250.787 408.637 259.576 414.485 256.628Z" fill="#090406"/>
<path d="M425.59 290.276C433.638 286.921 441.924 284.666 450.57 283.491C457.036 282.615 454.286 272.8 447.861 273.67C439.214 274.838 430.935 277.1 422.879 280.455C416.916 282.934 419.531 292.796 425.59 290.276Z" fill="#090406"/>
<path d="M457.587 256.221C463.143 254.7 468.747 253.661 474.493 253.199C480.986 252.676 481.04 242.488 474.493 243.011C467.85 243.54 461.309 244.634 454.877 246.393C448.561 248.125 451.244 257.953 457.587 256.221Z" fill="#090406"/>
<path d="M284.568 247.024C277.783 243.594 270.712 240.837 263.424 238.691C257.121 236.836 254.432 246.664 260.714 248.512C267.18 250.414 273.409 252.777 279.426 255.82C285.267 258.768 290.429 249.979 284.568 247.024Z" fill="#090406"/>
<path d="M271.031 279.646C262.983 276.291 254.697 274.036 246.05 272.861C239.639 271.992 236.868 281.806 243.34 282.682C251.987 283.851 260.273 286.112 268.321 289.468C274.373 291.987 277.008 282.132 271.031 279.646Z" fill="#090406"/>
<path d="M239.034 245.591C232.602 243.832 226.062 242.739 219.419 242.209C212.885 241.686 212.919 251.881 219.419 252.397C225.165 252.859 230.768 253.898 236.324 255.413C242.661 257.145 245.364 247.316 239.034 245.591Z" fill="#090406"/>
</g>
<g opacity="0.5">
<path d="M185.568 153.357C183.075 144.058 184.169 134.529 193.956 130.06C202.528 126.141 217.918 129.823 223.657 137.205C225.6 139.712 230.341 138.883 231.658 136.173C240.44 118.127 261.367 114.439 273.911 131.636C277.735 136.879 286.579 131.806 282.707 126.494C266.338 104.054 235.34 105.385 222.856 131.032C225.525 130.685 228.188 130.345 230.857 129.999C219.908 115.912 202.263 113.291 186.729 121.985C173.308 129.497 171.977 142.014 175.74 156.067C177.438 162.39 187.273 159.707 185.568 153.357Z" fill="#514944"/>
</g>
<path d="M528.835 34.6048C544.382 21.7204 570.443 24.6069 582.784 40.5885C592.014 33.2871 604.233 29.3342 615.793 31.5484C627.353 33.7558 637.758 42.7484 640.108 54.2744C650.609 54.2065 660.885 60.6181 665.422 70.0862C669.966 79.5474 668.546 91.5829 661.917 99.7265C683.108 110.478 678.089 132.525 673.613 150.904C682.273 151.319 688.943 159.815 689.744 168.448C690.539 177.081 686.735 185.509 681.879 192.689C689.119 198.156 690.158 209.146 686.606 217.493C683.054 225.84 675.977 232.103 668.954 237.849C672.282 245.924 670.061 255.963 663.636 261.872C657.211 267.781 647.016 269.167 639.253 265.173C634.247 278.241 617.009 284.917 604.511 278.628C601.577 277.154 598.908 275.089 595.763 274.152C593.345 273.432 590.785 273.411 588.285 273.065C571.142 270.708 559.134 250.264 565.43 234.14C559.834 232.13 554.094 230.038 549.591 226.146C539.729 217.615 544.524 202.544 545.428 191.12C524.223 191.079 507.786 168.265 510.035 147.182C510.435 143.413 511.264 139.399 509.641 135.975C508.323 133.191 505.64 131.37 503.202 129.496C496.709 124.511 491.051 118.044 488.599 110.234C486.14 102.43 487.37 93.1722 493.034 87.2632C488.742 91.7391 477.881 66.0653 477.386 63.824C475.871 57.0252 473.806 48.3042 476.632 41.6277C485.169 21.5098 515 20.5386 528.835 34.6048Z" fill="#514944"/>
<path opacity="0.5" d="M680.059 204.832C683.387 212.908 681.166 222.947 674.741 228.856C668.315 234.765 658.121 236.15 650.357 232.156C645.352 245.224 628.114 251.901 615.616 245.618C612.682 244.144 610.013 242.08 606.868 241.142C604.45 240.422 601.89 240.402 599.39 240.056C582.247 237.699 570.239 217.255 576.535 201.131C570.939 199.12 565.199 197.028 560.696 193.136C550.834 184.606 555.629 169.534 556.533 158.11C535.328 158.069 518.892 135.255 521.14 114.173C521.54 110.403 522.369 106.396 520.746 102.966C519.428 100.181 516.745 98.3609 514.307 96.4863C507.814 91.501 502.163 85.0349 499.704 77.2241C497.245 69.4133 498.475 60.1559 504.139 54.2536C499.847 58.7296 488.986 33.0558 488.491 30.8144C488.368 30.2778 488.246 29.7073 488.124 29.1436C483.172 31.8671 479.05 35.9627 476.645 41.6272C473.813 48.3038 475.885 57.0247 477.399 63.8235C477.895 66.0649 488.756 91.7387 493.048 87.2627C487.384 93.1718 486.154 102.429 488.613 110.233C491.071 118.044 496.722 124.51 503.216 129.495C505.654 131.37 508.337 133.197 509.654 135.975C511.278 139.405 510.449 143.412 510.048 147.182C507.793 168.264 524.237 191.078 545.441 191.119C544.538 202.543 539.743 217.615 549.605 226.146C554.108 230.037 559.841 232.129 565.444 234.14C559.148 250.257 571.156 270.708 588.299 273.065C590.798 273.411 593.359 273.425 595.777 274.151C598.922 275.095 601.591 277.153 604.525 278.627C617.022 284.91 634.267 278.233 639.266 265.166C647.036 269.159 657.224 267.774 663.649 261.865C670.075 255.949 672.296 245.91 668.968 237.835C675.991 232.089 683.061 225.826 686.62 217.479C689.099 211.658 689.276 204.594 686.749 198.971C684.569 201.008 682.334 202.964 680.059 204.832Z" fill="#514944"/>
<g opacity="0.5">
<path d="M555.086 63.4296C559.894 50.3279 567.44 46.8436 577.717 52.9767C581.799 54.8174 584.848 57.7379 586.865 61.7384C588.088 63.8099 590.37 64.5095 592.618 64.0816C601.563 62.37 609.68 62.5602 616.601 68.8428C623.631 75.2273 623.019 82.9295 622.143 91.8746C621.505 98.3949 631.693 98.3541 632.331 91.8746C633.472 80.2602 633.139 66.4385 622.972 58.7636C613.918 51.924 600.443 52.2364 589.908 54.2537C591.824 55.0347 593.746 55.8158 595.661 56.5969C583.062 35.1885 537.671 33.9524 545.258 66.1397C546.765 72.5174 556.593 69.8141 555.086 63.4296Z" fill="#514944"/>
</g>
<g opacity="0.5">
<path d="M588.245 105.377C575.197 98.001 558.468 104.277 555.127 119.409C551.901 134.06 564.493 145.844 577.955 148.14C584.366 149.233 587.124 139.412 580.665 138.311C573.52 137.096 565.349 132.769 564.819 124.605C564.16 114.54 575.102 109.649 583.103 114.173C588.815 117.406 593.957 108.61 588.245 105.377Z" fill="#514944"/>
</g>
<g opacity="0.5">
<path d="M623.726 130.738C629.906 125.543 640.841 126.772 645.066 133.937C649.399 141.286 645.31 150.686 638.145 154.232C632.27 157.139 637.425 165.928 643.287 163.028C655.988 156.752 661.116 139.364 653.006 127.485C644.76 115.409 627.21 114.553 616.519 123.539C611.493 127.763 618.733 134.936 623.726 130.738Z" fill="#514944"/>
</g>
<g opacity="0.5">
<path d="M586.003 170.73C578.572 176.992 578.022 189.87 583.483 197.701C589.548 206.401 600.008 205.695 609.374 204.194C607.228 202.557 605.075 200.92 602.928 199.283C601.821 223.544 636.644 230.153 645.195 207.929C647.552 201.803 637.703 199.154 635.367 205.219C633.031 211.305 624.867 212.596 619.684 210.633C614.353 208.616 612.865 204.697 613.116 199.283C613.279 195.67 609.748 193.877 606.671 194.373C601.461 195.208 599.634 195.419 594.948 192.362C590.363 189.374 586.974 183.193 593.216 177.936C598.228 173.705 590.988 166.526 586.003 170.73Z" fill="#514944"/>
</g>
<path d="M161.015 34.6048C145.468 21.7204 119.407 24.6069 107.066 40.5885C97.8355 33.2871 85.6167 29.3342 74.0567 31.5484C62.4967 33.7626 52.0914 42.7484 49.7413 54.2744C39.2409 54.2065 28.9714 60.6181 24.4275 70.0862C19.8837 79.5474 21.3032 91.5829 27.9322 99.7265C6.74119 110.478 11.7605 132.525 16.2364 150.904C7.57661 151.319 0.906866 159.815 0.105411 168.448C-0.689253 177.081 3.1143 185.509 7.97058 192.689C0.730307 198.156 -0.308967 209.146 3.24325 217.493C6.79546 225.84 13.8728 232.103 20.8958 237.849C17.5677 245.924 19.7886 255.963 26.2138 261.872C32.6391 267.781 42.8338 269.167 50.5971 265.173C55.6028 278.241 72.8409 284.917 85.3382 278.628C88.2723 277.154 90.9416 275.089 94.0862 274.152C96.5042 273.432 99.0649 273.411 101.564 273.065C118.707 270.708 130.716 250.264 124.419 234.14C130.016 232.13 135.755 230.038 140.258 226.146C150.12 217.615 145.325 202.544 144.422 191.12C165.626 191.079 182.063 168.265 179.815 147.182C179.414 143.413 178.586 139.399 180.209 135.975C181.527 133.191 184.209 131.37 186.648 129.496C193.141 124.511 198.792 118.044 201.25 110.234C203.709 102.43 202.48 93.1722 196.815 87.2632C201.108 91.7391 211.968 66.0653 212.464 63.824C213.979 57.0252 216.043 48.3042 213.218 41.6277C204.687 21.5098 174.85 20.5386 161.015 34.6048Z" fill="#514944"/>
<path opacity="0.5" d="M9.79756 204.832C6.46948 212.908 8.6904 222.947 15.1156 228.856C21.5409 234.765 31.7357 236.15 39.499 232.156C44.5047 245.224 61.7427 251.901 74.24 245.618C77.1741 244.144 79.8435 242.08 82.9882 241.142C85.4061 240.422 87.9667 240.402 90.4661 240.056C107.609 237.699 119.617 217.255 113.321 201.131C118.918 199.12 124.657 197.028 129.16 193.136C139.022 184.606 134.227 169.534 133.324 158.11C154.528 158.069 170.965 135.255 168.717 114.173C168.316 110.403 167.487 106.396 169.111 102.966C170.428 100.181 173.111 98.3609 175.549 96.4863C182.043 91.501 187.694 85.0349 190.152 77.2241C192.611 69.4133 191.382 60.1559 185.717 54.2536C190.01 58.7296 200.87 33.0558 201.366 30.8144C201.488 30.2778 201.61 29.7073 201.739 29.1436C206.691 31.8671 210.814 35.9627 213.218 41.6272C216.05 48.3038 213.979 57.0247 212.464 63.8235C211.961 66.0649 201.108 91.7387 196.815 87.2627C202.48 93.1718 203.709 102.429 201.25 110.233C198.792 118.044 193.134 124.51 186.648 129.495C184.209 131.37 181.526 133.197 180.209 135.975C178.586 139.405 179.414 143.412 179.815 147.182C182.07 168.264 165.626 191.078 144.422 191.119C145.325 202.543 150.12 217.615 140.258 226.146C135.762 230.037 130.023 232.129 124.419 234.14C130.715 250.257 118.707 270.708 101.564 273.065C99.0648 273.411 96.5042 273.425 94.0862 274.151C90.9415 275.095 88.2723 277.153 85.3381 278.627C72.8409 284.91 55.5959 278.233 50.597 265.166C42.827 269.159 32.639 267.774 26.2138 261.865C19.7885 255.949 17.5676 245.91 20.8957 237.835C13.8728 232.089 6.80221 225.826 3.24321 217.479C0.764126 211.658 0.587553 204.594 3.11418 198.971C5.28082 201.008 7.51545 202.964 9.79756 204.832Z" fill="#514944"/>
<g opacity="0.5">
<path d="M144.591 66.1405C152.164 34.0076 106.814 35.1554 94.1873 56.5978C96.1027 55.8167 98.0248 55.0356 99.9401 54.2545C89.2903 52.2169 76.0731 52.0335 66.8767 58.7644C56.6412 66.256 56.3967 80.4173 57.5174 91.8754C58.1491 98.3414 68.3438 98.4093 67.7054 91.8754C66.836 83.039 66.1704 75.2689 73.2476 68.8437C80.2094 62.5271 88.1018 62.3369 97.2302 64.0825C99.4784 64.5104 101.774 63.7972 102.983 61.7392C105 57.7387 108.05 54.8182 112.132 52.9776C122.408 46.8444 129.954 50.3287 134.763 63.4305C133.262 69.8082 143.083 72.525 144.591 66.1405Z" fill="#514944"/>
</g>
<g opacity="0.5">
<path d="M106.753 114.174C114.829 109.61 125.553 114.581 125.037 124.606C124.609 132.777 116.255 137.11 109.191 138.313C102.739 139.413 105.476 149.234 111.901 148.141C125.37 145.845 137.949 134.061 134.729 119.411C131.401 104.271 114.652 98.0022 101.611 105.378C95.8993 108.604 101.027 117.414 106.753 114.174Z" fill="#514944"/>
</g>
<g opacity="0.5">
<path d="M73.3295 123.54C62.6389 114.554 45.0884 115.41 36.8429 127.486C28.7333 139.365 33.8613 156.753 46.5623 163.029C52.4238 165.922 57.5857 157.14 51.7039 154.233C44.5315 150.687 40.4427 141.301 44.7828 133.938C49.0075 126.773 59.9426 125.543 66.1233 130.739C71.1154 134.937 78.3556 127.764 73.3295 123.54Z" fill="#514944"/>
</g>
<g opacity="0.5">
<path d="M96.6393 177.93C97.6445 180.192 98.6498 182.454 99.6618 184.716C100.47 188.743 98.8807 191.29 94.9073 192.357C89.8473 195.658 89.0866 195.311 83.1844 194.367C80.1076 193.871 76.569 195.664 76.7388 199.278C76.9833 204.698 75.5026 208.61 70.1709 210.627C64.9886 212.59 56.8315 211.293 54.4882 205.214C52.1586 199.155 42.3034 201.791 44.667 207.924C53.2113 230.127 88.0406 223.579 86.9336 199.278C84.7873 200.915 82.6342 202.551 80.4879 204.188C89.8541 205.689 100.307 206.409 106.379 197.695C111.84 189.857 111.283 176.98 103.859 170.724C98.8603 166.527 91.62 173.699 96.6393 177.93Z" fill="#514944"/>
</g>
<g opacity="0.5">
<path d="M386.108 50.5182C388.94 68.1639 368.524 75.4517 356.108 72.0829C348.949 70.1403 343.217 64.6048 338.15 59.5448C336.635 58.0302 333.837 57.5005 331.976 58.7502C326.576 63.0495 320.328 65.5557 313.23 66.2756C293.968 62.9883 288.67 54.118 297.343 39.6578C300.794 34.0612 291.985 28.94 288.548 34.5163C281.029 46.7147 281.009 61.0051 293.329 70.249C298.96 74.4804 306.207 76.6198 313.237 76.4636C321.387 76.2802 329.911 69.8278 336.608 72.1303C343.509 74.5007 347.862 80.7223 355.761 82.3727C362.975 83.8806 370.643 83.0926 377.462 80.24C391.182 74.4939 398.272 62.3295 395.943 47.8082C394.89 41.3558 385.076 44.093 386.108 50.5182Z" fill="#514944"/>
</g>
<g opacity="0.5">
<path d="M391.372 116.816C403.428 104.115 420.686 100.039 436.532 108.359C451.468 116.204 455.903 130.209 455.482 146.245C455.312 152.806 465.5 152.8 465.67 146.245C466.22 125.102 458.375 106.791 438.169 97.8863C418.968 89.4302 398.416 94.5989 384.166 109.609C379.656 114.364 386.849 121.584 391.372 116.816Z" fill="#514944"/>
</g>
</svg>
