<svg width="655" height="737" viewBox="0 0 655 737" fill="none" xmlns="http://www.w3.org/2000/svg">
<path d="M612.05 722.123C596.625 725.655 579.72 726.131 566.354 727.285C520.766 731.211 475.062 733.873 429.325 735.259C307.986 738.933 187.278 730.294 66.1974 724.528C53.5099 723.916 39.2129 722.531 31.2526 712.628C15.0945 692.544 30.9402 657.416 35.7014 636.062C43.8382 599.575 54.2232 563.625 62.4076 527.152C80.0057 448.698 83.6189 378.543 69.7157 299.341C68.5475 292.706 67.4133 285.466 70.6598 279.57C74.7894 272.065 84.2642 269.667 92.6998 268.159C182.32 252.123 273.985 252.877 365.025 253.679C430.452 254.256 495.88 254.834 561.307 255.411C567.515 255.465 574.409 255.798 578.783 260.206C583.945 265.416 583.279 273.824 582.396 281.105C575.319 339.645 571.155 390.266 587.843 447.258C603.356 500.222 622.211 552.147 637.377 605.233C644.883 631.504 659.981 660.425 652.904 688.387C647.722 708.838 631 717.783 612.05 722.123Z" fill="#E4D7CC"/>
<mask id="mask0_1606_168" style="mask-type:luminance" maskUnits="userSpaceOnUse" x="24" y="253" width="631" height="484">
<path d="M612.05 722.123C596.625 725.655 579.72 726.131 566.354 727.285C520.766 731.211 475.062 733.873 429.325 735.259C307.986 738.933 187.278 730.294 66.1974 724.528C53.5099 723.916 39.2129 722.531 31.2526 712.628C15.0945 692.544 30.9402 657.416 35.7014 636.062C43.8382 599.575 54.2232 563.625 62.4076 527.152C80.0057 448.698 83.6189 378.543 69.7157 299.341C68.5475 292.706 67.4133 285.466 70.6598 279.57C74.7894 272.065 84.2642 269.667 92.6998 268.159C182.32 252.123 273.985 252.877 365.025 253.679C430.452 254.256 495.88 254.834 561.307 255.411C567.515 255.465 574.409 255.798 578.783 260.206C583.945 265.416 583.279 273.824 582.396 281.105C575.319 339.645 571.155 390.266 587.843 447.258C603.356 500.222 622.211 552.147 637.377 605.233C644.883 631.504 659.981 660.425 652.904 688.387C647.722 708.838 631 717.783 612.05 722.123Z" fill="white"/>
</mask>
<g mask="url(#mask0_1606_168)">
<path d="M751.265 793.094C730.156 842.974 699.959 882.449 670.366 926.013C662.44 937.682 648.985 948.107 635.326 944.589C623.983 941.662 617.151 930.421 611.574 920.118C572.84 848.516 537.052 775.326 504.335 700.79C493.346 675.762 482.479 648.967 486.439 621.928C489.882 598.442 504.071 578.113 518.096 558.953C549.061 516.645 581.309 475.269 612.763 433.328C628.514 411.702 644.842 389.54 667.541 375.379C690.239 361.217 721.143 356.803 743.332 371.745C771.438 390.674 774.487 430.129 774.711 464.014C775.187 535.459 775.662 606.904 776.131 678.349C776.403 719.74 766.439 757.252 751.265 793.094Z" fill="#524543"/>
<path d="M-103.888 793.094C-82.7782 842.974 -52.5809 882.449 -22.9882 926.013C-15.0619 937.682 -1.60701 948.107 12.0517 944.589C23.3943 941.662 30.2269 930.421 35.8032 920.118C74.538 848.516 110.325 775.326 143.042 700.79C154.032 675.762 164.899 648.967 160.939 621.928C157.496 598.442 143.307 578.113 129.281 558.953C98.3167 516.645 66.0684 475.269 34.6147 433.328C18.864 411.702 2.54283 389.54 -20.1628 375.379C-42.8617 361.217 -73.7653 356.803 -95.9547 371.745C-124.06 390.674 -127.11 430.129 -127.334 464.014C-127.809 535.459 -128.285 606.904 -128.753 678.349C-129.025 719.74 -119.061 757.252 -103.888 793.094Z" fill="#524543"/>
<path opacity="0.5" d="M384.45 537.13C435.275 528.572 483.709 507.32 524.617 471.417C564.649 436.275 674.863 333.071 613.986 277.166C604.667 268.608 591.932 264.995 579.585 262.231C522.28 249.407 463.02 249.108 404.303 248.864C327.683 248.545 251.021 248.232 174.51 252.28C146.927 253.741 118.87 255.873 93.1484 265.939C67.4271 276.005 43.9606 295.26 35.2736 321.491C8.51991 402.282 100.878 467.607 162.046 499.407C230.55 535.017 310.058 549.661 384.45 537.13Z" fill="#E4D7CC"/>
</g>
<path d="M195.137 175.082C213.76 161.288 239.801 133.501 227.12 109.356C215.017 86.3174 192.542 65.201 173.036 48.4723C136.488 17.1272 90.0849 2.61273 41.7938 0.0861014C-50.1156 -4.72943 35.6878 193.93 53.0413 224.12C58.3459 233.351 66.3671 243.45 76.9694 242.452C80.902 242.085 84.4951 240.163 87.9658 238.268C121.505 219.95 154.541 200.715 187.027 180.597C189.669 178.96 192.393 177.113 195.137 175.082Z" fill="#524543"/>
<path d="M119.114 72.5775C95.899 61.7714 67.7188 53.3696 57.3542 71.8371C50.2634 84.4702 57.2117 104.52 61.2326 116.95C71.3187 148.179 87.0896 183.022 107.914 208.757C108.518 209.504 109.177 210.278 110.081 210.611C112.003 211.318 113.952 209.789 115.453 208.397C136.372 188.918 162.128 173.69 186.817 159.447C188.732 158.347 190.722 157.165 191.863 155.263C209.563 125.711 169.212 99.8405 147.946 87.8595C141.738 84.3548 131.088 78.1469 119.114 72.5775Z" fill="#E5928C"/>
<path d="M451.698 175.082C433.074 161.288 407.034 133.501 419.715 109.356C431.818 86.3174 454.293 65.201 473.799 48.4723C510.347 17.1272 556.75 2.61273 605.041 0.0861014C696.95 -4.72943 611.147 193.93 593.794 224.12C588.489 233.351 580.468 243.45 569.865 242.452C565.933 242.085 562.34 240.163 558.869 238.268C525.33 219.95 492.294 200.715 459.808 180.597C457.166 178.96 454.435 177.113 451.698 175.082Z" fill="#524543"/>
<path d="M527.72 72.5775C550.935 61.7714 579.115 53.3696 589.48 71.8371C596.571 84.4702 589.622 104.52 585.602 116.95C575.515 148.179 559.744 183.022 538.92 208.757C538.316 209.504 537.657 210.278 536.747 210.611C534.825 211.318 532.875 209.789 531.374 208.397C510.455 188.918 484.7 173.69 460.011 159.447C458.095 158.347 456.105 157.165 454.964 155.263C437.264 125.711 477.616 99.8405 498.881 87.8595C505.089 84.3548 515.746 78.1469 527.72 72.5775Z" fill="#E5928C"/>
<path d="M355.91 507.618C332.512 509.479 307.904 507.048 281.314 501.383C233.552 491.209 185.098 465.318 142.852 441.165C102.222 417.943 68.2282 380.873 58.9436 333.899C43.9468 258.026 87.0761 185.243 143.144 137.502C203.525 86.0929 276.586 61.6418 355.496 72.5838C485.603 90.6233 639.286 224.854 578.701 369.088C562.564 407.511 531.164 438.408 495.302 458.811C455.338 481.544 402.109 503.937 355.91 507.618Z" fill="#524543"/>
<mask id="mask1_1606_168" style="mask-type:luminance" maskUnits="userSpaceOnUse" x="55" y="70" width="538" height="439">
<path d="M355.91 507.618C332.512 509.479 307.904 507.048 281.314 501.383C233.552 491.209 185.098 465.318 142.852 441.165C102.222 417.943 68.2282 380.873 58.9436 333.899C43.9468 258.026 87.0761 185.243 143.144 137.502C203.525 86.0929 276.586 61.6418 355.496 72.5838C485.603 90.6233 639.286 224.854 578.701 369.088C562.564 407.511 531.164 438.408 495.302 458.811C455.338 481.544 402.109 503.937 355.91 507.618Z" fill="white"/>
</mask>
<g mask="url(#mask1_1606_168)">
<path d="M337.314 178.648C333.687 170.695 330.155 163.427 325.346 156.316C322.711 152.411 311.796 140.484 312.564 135.879C309.154 148.77 304.719 161.39 299.319 173.581C285.226 166.239 272.362 156.819 258.173 149.483C256.054 170.043 257.637 190.982 262.819 210.992C253.561 206.964 244.311 202.943 235.053 198.916C250.702 244.062 263.661 298.276 239.006 342.906C231.569 356.361 219.33 366.426 207.016 375.63C169.069 403.986 127.529 427.521 83.7003 445.492C69.3012 451.394 51.9477 460.55 52.6133 476.097C52.9393 483.833 57.9994 490.482 63.1342 496.276C90.9203 527.621 127.332 550.408 165.822 566.926C267.505 610.558 386.902 611.027 488.925 568.19C540.157 546.679 573.071 510.43 538.37 458.051C520.569 431.175 493.17 413.488 466.756 396.06C446.4 382.632 424.075 370.067 409.458 349.963C394.04 328.758 392.003 295.47 392.247 270.102C392.553 237.671 398.122 205.286 408.745 174.634C398.917 183.885 389.096 193.129 379.275 202.379C372.795 186.472 366.309 170.559 359.829 154.652C351.923 162.272 344.404 170.28 337.314 178.648Z" fill="#E4D7CC"/>
</g>
<mask id="mask2_1606_168" style="mask-type:luminance" maskUnits="userSpaceOnUse" x="55" y="70" width="538" height="439">
<path d="M355.91 507.618C332.512 509.479 307.904 507.048 281.314 501.383C233.552 491.209 185.098 465.318 142.852 441.165C102.222 417.943 68.2282 380.873 58.9436 333.899C43.9468 258.026 87.0761 185.243 143.144 137.502C203.525 86.0929 276.586 61.6418 355.496 72.5838C485.603 90.6233 639.286 224.854 578.701 369.088C562.564 407.511 531.164 438.408 495.302 458.811C455.338 481.544 402.109 503.937 355.91 507.618Z" fill="white"/>
</mask>
<g mask="url(#mask2_1606_168)">
<path opacity="0.1" d="M461.077 140.958C422.927 119.998 383.316 105.341 337.463 101.959C257.1 96.0294 176.737 124.495 113.843 173.941C101.801 183.409 74.4496 217.729 57.4492 210.59C60.1456 187.348 76.9695 170.741 92.5911 155.079C111.242 136.381 129.247 117.234 149.732 100.471C200.822 58.6734 253.33 45.2456 318.316 44.1385C394.129 42.848 487.906 53.1855 545.339 108.146C557.537 119.822 567.814 133.331 577.784 146.956C586.702 159.141 602.759 181.289 597.013 197.726C587.361 225.288 507.283 169.22 495.513 161.627C484.075 154.25 472.644 147.316 461.077 140.958Z" fill="white"/>
</g>
<path d="M314.404 367.106C313.548 395.299 331.635 420.402 358.654 429.185C390.21 439.44 422.37 424.872 445.415 403.545C450.237 399.082 443.017 391.89 438.209 396.338C419.762 413.414 394.074 426.882 368.034 421.143C342.414 415.492 323.784 393.588 324.592 367.106C324.789 360.545 314.601 360.551 314.404 367.106Z" fill="#090406"/>
<path d="M312.795 365.285C312.394 392.121 301.099 422.216 270.881 425.238C247.184 427.609 220.559 419.261 206.262 399.612C202.445 394.362 193.602 399.442 197.466 404.754C214.718 428.465 247.034 439.868 275.989 435.012C309.073 429.47 322.527 395.72 322.983 365.285C323.078 358.731 312.89 358.724 312.795 365.285Z" fill="#090406"/>
<path d="M291.074 352.02C299.951 359.064 310.941 364.681 317.298 367.866C318.052 368.247 318.853 368.62 319.695 368.6C320.585 368.572 321.394 368.111 322.161 367.656C334.577 360.198 364.007 342.247 358.118 325.742C352.766 310.739 332.668 302.025 317.807 302.609C304.651 303.125 284.044 312.022 278.414 324.778C274.019 334.714 281.266 344.244 291.074 352.02Z" fill="#D16F6D"/>
<path d="M302.64 330.714C309.745 325.6 309.378 312.118 297.051 314.325C286.238 316.261 282.93 331.624 295.746 332.589C298.49 332.793 300.813 332.032 302.64 330.714Z" fill="white"/>
<g opacity="0.5">
<path d="M404.588 113.35C392.973 122.41 385.971 136.089 380.836 149.592C378.5 155.725 388.348 158.381 390.664 152.302C395.215 140.348 401.552 128.55 411.794 120.556C416.956 116.528 409.702 109.363 404.588 113.35Z" fill="#524543"/>
</g>
<g opacity="0.5">
<path d="M259.3 160.092C260.312 143.54 254.579 128.693 247.991 113.818C245.342 107.834 236.56 113.017 239.196 118.96C245.091 132.265 250.015 145.306 249.112 160.092C248.711 166.646 258.899 166.619 259.3 160.092Z" fill="#524543"/>
</g>
<g opacity="0.5">
<path d="M285.191 155.561C290.279 172.29 292.758 188.903 287.718 205.944C285.857 212.247 295.685 214.937 297.539 208.655C303.068 189.963 300.596 171.231 295.013 152.858C293.111 146.596 283.276 149.265 285.191 155.561Z" fill="#524543"/>
</g>
<g opacity="0.5">
<path d="M329 144.661C329.699 128.496 328.803 112.521 326.629 96.4985C325.753 90.0325 315.932 92.7832 316.808 99.2084C318.859 114.293 319.477 129.453 318.819 144.661C318.526 151.215 328.714 151.201 329 144.661Z" fill="#524543"/>
</g>
<g opacity="0.5">
<path d="M330.243 255.268C330.943 239.103 330.046 223.128 327.873 207.106C326.997 200.64 317.175 203.391 318.051 209.816C320.103 224.901 320.721 240.061 320.062 255.268C319.77 261.829 329.958 261.816 330.243 255.268Z" fill="#524543"/>
</g>
<g opacity="0.5">
<path d="M120.879 301.657C105.156 297.996 89.2354 295.816 73.1112 295.021C66.5569 294.695 66.5773 304.883 73.1112 305.209C88.3321 305.963 103.322 308.028 118.169 311.485C124.547 312.966 127.271 303.144 120.879 301.657Z" fill="#524543"/>
</g>
<g opacity="0.5">
<path d="M171.894 312.919C162.399 309.842 152.625 308.266 142.647 308.083C136.086 307.968 136.086 318.156 142.647 318.271C151.755 318.434 160.524 319.935 169.184 322.74C175.439 324.764 178.115 314.936 171.894 312.919Z" fill="#524543"/>
</g>
<g opacity="0.5">
<path d="M135.238 333.132C121.335 332.086 107.628 332.833 93.8745 335.061C87.4153 336.107 90.1592 345.928 96.5844 344.882C109.414 342.804 122.285 342.342 135.238 343.32C141.778 343.809 141.751 333.621 135.238 333.132Z" fill="#524543"/>
</g>
<g opacity="0.5">
<path d="M137.323 277.566C127.461 271.202 116.872 266.23 105.74 262.515C99.5046 260.437 96.8286 270.272 103.03 272.337C113.367 275.78 123.025 280.453 132.174 286.355C137.71 289.928 142.817 281.112 137.323 277.566Z" fill="#524543"/>
</g>
<g opacity="0.5">
<path d="M525.214 311.478C540.062 308.021 555.045 305.956 570.272 305.202C576.799 304.876 576.833 294.688 570.272 295.014C554.148 295.809 538.228 297.989 522.504 301.65C516.127 303.144 518.83 312.966 525.214 311.478Z" fill="#524543"/>
</g>
<g opacity="0.5">
<path d="M474.2 322.739C482.866 319.934 491.628 318.433 500.736 318.27C507.283 318.155 507.304 307.967 500.736 308.082C490.758 308.259 480.985 309.834 471.49 312.918C465.282 314.928 467.937 324.77 474.2 322.739Z" fill="#524543"/>
</g>
<g opacity="0.5">
<path d="M508.146 343.32C521.105 342.348 533.97 342.804 546.8 344.882C553.211 345.921 555.976 336.107 549.51 335.061C535.756 332.833 522.05 332.086 508.146 333.132C501.646 333.621 501.592 343.809 508.146 343.32Z" fill="#524543"/>
</g>
<g opacity="0.5">
<path d="M511.203 286.362C520.358 280.459 530.016 275.786 540.347 272.343C546.535 270.278 543.886 260.437 537.637 262.522C526.505 266.23 515.923 271.209 506.054 277.573C500.573 281.105 505.674 289.927 511.203 286.362Z" fill="#524543"/>
</g>
<g opacity="0.5">
<path d="M359.503 147.649C351.06 164.303 345.443 183.932 351.142 202.359C353.071 208.601 362.912 205.938 360.963 199.649C356.08 183.878 361.072 167.034 368.298 152.791C371.26 146.956 362.471 141.795 359.503 147.649Z" fill="#524543"/>
</g>
<path d="M439.315 235.884C423.388 227.299 402.87 233.439 389.143 245.223C385.652 248.219 382.426 251.587 380.089 255.547C362.871 284.712 398.611 312.539 425.487 304.681C454.788 296.129 471.727 253.36 439.315 235.884Z" fill="white"/>
<path d="M390.169 273.994C394.108 285.323 406.884 291.504 418.872 291.891C421.915 291.986 425.005 291.79 427.919 290.9C449.388 284.352 444.382 254.759 427.728 246.562C409.573 237.63 382.147 250.949 390.169 273.994Z" fill="#090406"/>
<path d="M406.47 262.882C414.763 255.927 414.342 237.575 399.943 240.577C387.323 243.212 383.452 264.118 398.421 265.422C401.613 265.708 404.33 264.675 406.47 262.882Z" fill="white"/>
<path d="M246.145 235.884C230.217 227.299 209.699 233.439 195.972 245.223C192.481 248.219 189.255 251.587 186.918 255.547C169.701 284.712 205.44 312.539 232.316 304.681C261.617 296.129 278.556 253.36 246.145 235.884Z" fill="white"/>
<path d="M196.998 273.994C200.937 285.323 213.713 291.504 225.701 291.891C228.75 291.986 231.834 291.79 234.748 290.9C256.217 284.352 251.211 254.759 234.558 246.562C216.402 237.63 188.983 250.949 196.998 273.994Z" fill="#090406"/>
<path d="M213.299 262.882C221.592 255.927 221.171 237.575 206.772 240.577C194.152 243.212 190.281 264.118 205.25 265.422C208.449 265.708 211.159 264.675 213.299 262.882Z" fill="white"/>
<g opacity="0.5">
<path d="M381.496 361.006C387.004 358.412 392.723 356.429 398.591 354.819C404.908 353.087 402.225 343.252 395.881 344.998C389.164 346.838 382.657 349.243 376.354 352.211C370.425 355.002 375.593 363.784 381.496 361.006Z" fill="#090406"/>
<path d="M391.595 389.907C398.557 387.204 405.77 385.213 413.194 384.276C419.612 383.468 419.694 373.266 413.194 374.088C404.806 375.148 396.778 377.015 388.885 380.079C382.84 382.435 385.476 392.291 391.595 389.907Z" fill="#090406"/>
<path d="M420.998 360.728C426.085 359.437 431.186 358.561 436.422 358.167C442.922 357.678 442.97 347.484 436.422 347.979C430.296 348.441 424.244 349.392 418.287 350.907C411.937 352.523 414.633 362.351 420.998 360.728Z" fill="#090406"/>
<path d="M262.126 351.518C255.823 348.55 249.316 346.146 242.599 344.305C236.269 342.566 233.566 352.394 239.889 354.126C245.757 355.736 251.476 357.719 256.984 360.314C262.887 363.092 268.062 354.31 262.126 351.518Z" fill="#090406"/>
<path d="M249.595 379.392C241.703 376.329 233.674 374.454 225.286 373.402C218.8 372.58 218.861 382.781 225.286 383.59C232.71 384.527 239.923 386.517 246.885 389.22C252.998 391.591 255.647 381.742 249.595 379.392Z" fill="#090406"/>
<path d="M220.193 350.214C214.243 348.699 208.184 347.748 202.065 347.287C195.524 346.798 195.558 356.986 202.065 357.475C207.295 357.869 212.402 358.745 217.489 360.035C223.84 361.652 226.55 351.83 220.193 350.214Z" fill="#090406"/>
</g>
</svg>
