<svg width="769" height="642" viewBox="0 0 769 642" fill="none" xmlns="http://www.w3.org/2000/svg">
<path d="M417.595 438.319C321.454 449.872 224.682 404.828 168.349 321.218C146.839 289.296 133.391 255.899 139.334 215.983C147.043 164.187 180.581 120.304 214.351 84.1297C247.788 48.3087 284.662 16.5222 332.125 5.1388C435.472 -19.6384 529.337 48.9812 592.489 129.494C625.369 171.414 640.115 222.367 627.74 276.221C617.321 321.578 585.527 357.304 550.535 383.637C509.844 414.235 464.331 432.702 417.595 438.319Z" fill="#965D37"/>
<mask id="mask0_1606_484" style="mask-type:luminance" maskUnits="userSpaceOnUse" x="137" y="0" width="496" height="441">
<path d="M417.595 438.319C321.454 449.872 224.682 404.828 168.349 321.218C146.839 289.296 133.391 255.899 139.334 215.983C147.043 164.187 180.581 120.304 214.351 84.1297C247.788 48.3087 284.662 16.5222 332.125 5.1388C435.472 -19.6384 529.337 48.9812 592.489 129.494C625.369 171.414 640.115 222.367 627.74 276.221C617.321 321.578 585.527 357.304 550.535 383.637C509.844 414.235 464.331 432.702 417.595 438.319Z" fill="white"/>
</mask>
<g mask="url(#mask0_1606_484)">
<path opacity="0.1" d="M498.739 66.26C466.327 47.3714 432.68 34.161 393.728 31.1114C325.455 25.7661 257.181 51.4195 203.756 95.975C193.527 104.506 170.291 135.43 155.845 129.005C158.14 108.058 172.424 93.0952 185.696 78.9814C201.541 62.1305 216.83 44.8788 234.238 29.7734C277.639 -7.89507 322.249 -19.9916 377.454 -20.99C441.863 -22.1515 521.526 -12.8328 570.32 36.6944C580.684 47.2152 589.412 59.3933 597.882 71.6665C605.462 82.6423 619.093 102.604 614.216 117.417C606.018 142.249 537.99 91.73 527.992 84.8904C518.279 78.2343 508.567 71.9856 498.739 66.26Z" fill="white"/>
</g>
<mask id="mask1_1606_484" style="mask-type:luminance" maskUnits="userSpaceOnUse" x="137" y="0" width="496" height="441">
<path d="M417.595 438.319C321.454 449.872 224.682 404.828 168.349 321.218C146.839 289.296 133.391 255.899 139.334 215.983C147.043 164.187 180.581 120.304 214.351 84.1297C247.788 48.3087 284.662 16.5222 332.125 5.1388C435.472 -19.6384 529.337 48.9812 592.489 129.494C625.369 171.414 640.115 222.367 627.74 276.221C617.321 321.578 585.527 357.304 550.535 383.637C509.844 414.235 464.331 432.702 417.595 438.319Z" fill="white"/>
</mask>
<g mask="url(#mask1_1606_484)">
<path d="M428.863 -26.1793C443.296 -21.7169 456.962 -13.5054 466.565 -1.23901C468.053 0.662754 469.506 2.8226 469.588 5.29488C469.71 8.81993 467.102 11.6862 464.738 14.1584C449.565 30.0178 432.483 50.7945 426.078 72.5289C416.271 105.823 413.33 148.002 423.817 181.493C429.895 200.904 441.958 212.763 459.576 221.946C472.97 228.928 485.535 237.493 496.987 247.335C523.408 270.04 546.025 300.115 555.921 334.17C560.825 351.055 563.107 370.161 559.575 387.555C556.165 404.325 541.597 411.918 527.564 419.152C515.121 425.563 505.456 434.835 493.414 441.355C482.533 447.243 470.804 450.959 459.013 454.008C420.495 463.986 380.239 467.212 341.253 459.795C327.798 459.795 310.343 453.784 296.799 450.972C279.371 447.359 262.398 435.935 246.376 428.07C235.175 422.568 223.704 417.888 213.815 410.193C208.062 405.717 202.139 401.038 198.764 394.578C195.483 388.296 194.96 380.954 195.11 373.87C195.463 357.711 199.042 341.628 205.59 326.849C223.276 286.905 255.049 251.94 293.981 231.957C334.108 211.364 348.432 166.788 346.102 124.162C343.413 74.9332 329.761 28.8563 301.988 -10.8701C301.581 -11.4542 360.332 -32.523 366.506 -33.5418C387.676 -37.0193 408.46 -32.4822 428.863 -26.1793Z" fill="#EDD4C4"/>
</g>
<path d="M348.846 286.892C357.038 293.928 365.507 300.639 374.228 307.003C374.968 307.539 375.756 308.096 376.666 308.198C377.957 308.341 379.146 307.553 380.205 306.799C392.118 298.316 418.784 281.893 417.833 265.103C416.773 246.472 391.636 234.546 375.614 235.177C362.261 235.7 348.534 242.037 340.173 252.612C330.515 264.824 336.92 276.554 347.583 285.791C348.004 286.165 348.425 286.525 348.846 286.892Z" fill="#090406"/>
<path d="M360.454 263.282C367.558 258.168 367.191 244.686 354.864 246.893C344.051 248.829 340.743 264.193 353.56 265.157C356.297 265.361 358.62 264.6 360.454 263.282Z" fill="white"/>
<path d="M372.211 299.674C371.355 327.868 389.442 352.971 416.461 361.753C448.016 372.009 480.183 357.44 503.222 336.12C508.044 331.658 500.824 324.465 496.015 328.914C477.561 345.989 451.881 359.457 425.84 353.718C400.221 348.067 381.591 326.163 382.399 299.681C382.596 293.12 372.408 293.127 372.211 299.674Z" fill="#090406"/>
<path d="M370.601 297.86C370.2 324.695 358.905 354.791 328.688 357.813C304.99 360.184 278.366 351.836 264.069 332.187C260.252 326.937 251.408 332.017 255.273 337.329C272.525 361.039 304.848 372.436 333.795 367.587C366.879 362.045 380.334 328.288 380.789 297.86C380.884 291.299 370.696 291.299 370.601 297.86Z" fill="#090406"/>
<g opacity="0.5">
<g opacity="0.5">
<path d="M430.928 24.6385C422.213 33.6379 417.262 45.2862 414.783 57.4371C413.479 63.8351 423.293 66.5723 424.611 60.1471C426.744 49.6874 430.602 39.6216 438.134 31.8448C442.698 27.1311 435.499 19.918 430.928 24.6385Z" fill="#EDD4C4"/>
</g>
<g opacity="0.5">
<path d="M349.07 52.0779C350.171 38.983 344.228 27.6811 337.762 16.7392C334.427 11.1018 325.618 16.2162 328.966 21.8807C334.57 31.3624 339.833 40.7013 338.882 52.0779C338.339 58.6119 348.527 58.5779 349.07 52.0779Z" fill="#EDD4C4"/>
</g>
<g opacity="0.5">
<path d="M350.863 92.9928C357.798 109.823 362.349 127.197 359.258 145.454C358.172 151.866 367.986 154.623 369.08 148.164C372.496 127.978 368.4 109.015 360.685 90.2828C358.226 84.3059 348.364 86.9276 350.863 92.9928Z" fill="#EDD4C4"/>
</g>
<g opacity="0.5">
<path d="M388.104 78.6142C388.824 66.3478 387.928 54.2445 385.734 42.1616C384.559 35.7227 374.745 38.4463 375.913 44.8715C377.944 56.0512 378.582 67.2784 377.923 78.6142C377.536 85.1617 387.724 85.1413 388.104 78.6142Z" fill="#EDD4C4"/>
</g>
<g opacity="0.5">
<path d="M408.324 92.4697C397.41 109.864 389.327 130.654 391.922 151.492C392.723 157.911 402.918 157.992 402.11 151.492C399.712 132.244 407.041 113.668 417.12 97.6113C420.618 92.0418 411.809 86.9206 408.324 92.4697Z" fill="#EDD4C4"/>
</g>
</g>
<path d="M501.68 157.898C487.797 150.413 469.907 155.765 457.94 166.042C454.897 168.657 452.085 171.591 450.047 175.041C435.037 200.464 466.192 224.725 489.624 217.878C515.169 210.421 529.928 173.133 501.68 157.898Z" fill="white"/>
<path d="M458.829 191.125C462.266 201 473.405 206.393 483.851 206.726C486.507 206.814 489.196 206.638 491.736 205.863C510.455 200.158 506.088 174.355 491.573 167.21C475.748 159.42 451.84 171.034 458.829 191.125Z" fill="#090406"/>
<path d="M473.038 181.432C480.265 175.367 479.898 159.365 467.346 161.987C456.343 164.283 452.974 182.506 466.015 183.647C468.813 183.898 471.177 182.995 473.038 181.432Z" fill="white"/>
<path d="M305.982 157.898C292.099 150.413 274.209 155.765 262.241 166.042C259.198 168.657 256.387 171.591 254.349 175.041C239.339 200.464 270.494 224.725 293.926 217.878C319.471 210.421 334.236 173.133 305.982 157.898Z" fill="white"/>
<path d="M263.131 191.125C266.568 201 277.707 206.393 288.153 206.726C290.808 206.814 293.498 206.638 296.038 205.863C314.757 200.158 310.39 174.355 295.875 167.21C280.05 159.42 256.149 171.034 263.131 191.125Z" fill="#090406"/>
<path d="M277.34 181.432C284.573 175.367 284.2 159.365 271.648 161.987C260.645 164.283 257.276 182.506 270.317 183.647C273.115 183.898 275.479 182.995 277.34 181.432Z" fill="white"/>
<g opacity="0.5">
<path d="M444.165 289.411C450.183 286.369 456.411 284.005 462.877 282.103C469.153 280.256 466.484 270.421 460.167 272.282C452.873 274.428 445.802 277.193 439.024 280.616C433.169 283.57 438.324 292.359 444.165 289.411Z" fill="#090406"/>
<path d="M455.27 323.059C463.325 319.704 471.605 317.449 480.251 316.274C486.717 315.398 483.966 305.584 477.541 306.453C468.895 307.621 460.609 309.883 452.56 313.238C446.597 315.717 449.212 325.579 455.27 323.059Z" fill="#090406"/>
<path d="M487.267 289.004C492.823 287.483 498.426 286.444 504.172 285.982C510.665 285.466 510.72 275.271 504.172 275.794C497.53 276.324 490.989 277.417 484.557 279.176C478.247 280.908 480.923 290.736 487.267 289.004Z" fill="#090406"/>
<path d="M314.254 279.801C307.469 276.371 300.399 273.607 293.104 271.467C286.801 269.613 284.111 279.441 290.394 281.288C296.86 283.19 303.088 285.554 309.106 288.596C314.954 291.551 320.116 282.762 314.254 279.801Z" fill="#090406"/>
<path d="M300.718 312.423C292.669 309.067 284.383 306.812 275.737 305.637C269.325 304.768 266.554 314.583 273.027 315.459C281.673 316.627 289.959 318.889 298.008 322.244C304.053 324.77 306.695 314.915 300.718 312.423Z" fill="#090406"/>
<path d="M268.721 278.368C262.289 276.609 255.748 275.515 249.105 274.985C242.572 274.462 242.606 284.65 249.105 285.173C254.852 285.635 260.455 286.674 266.011 288.196C272.341 289.928 275.044 280.1 268.721 278.368Z" fill="#090406"/>
</g>
<path d="M538.791 123.15C531.178 104.044 522.837 85.1417 512.568 67.2991C506.394 56.5745 497.741 43.5611 488.503 35.6959C486.255 33.7806 484.258 31.2336 484.116 28.2859C483.083 6.97937 547.118 9.27504 558.998 10.124C585.412 12.0122 613.361 16.5017 637.669 28.7681C672.73 46.4681 699.694 78.8183 716.069 114.035C735.882 156.641 729.042 198.548 731.419 243.891C733.111 276.139 741.954 307.505 748.922 339.033C762.18 399.014 768.741 460.474 768.456 521.901C768.402 533.115 768.103 544.478 764.958 555.236C757.833 579.592 741.777 604.886 725.714 624.338C723.486 627.035 720.654 629.921 717.163 629.69C714.976 629.548 713.074 628.182 710.975 627.564C704.611 625.683 698.519 630.723 693.452 635.008C688.385 639.294 681.016 643.274 675.548 639.512C673.504 638.106 672.22 635.857 670.42 634.153C664.898 628.909 654.493 630.662 650.989 637.413C646.091 629.84 641.194 622.267 636.304 614.7C632.141 608.262 624.479 600.96 618.102 605.205C602.446 569.364 581.459 532.538 573.743 493.939C571.006 480.266 571.047 466.207 571.475 452.27C572.432 421.285 575.271 389.946 569.328 359.532C566.707 346.124 562.407 333.09 559.752 319.69C549.686 268.926 563.569 215.555 552.491 165.002C549.339 150.644 544.232 136.802 538.791 123.15Z" fill="#965D37"/>
<g opacity="0.5">
<path d="M591.817 124.617C599.023 144.062 598.561 164.37 598.113 184.794C597.971 191.355 608.159 191.348 608.301 184.794C608.763 163.508 609.143 142.154 601.638 121.907C599.383 115.814 589.528 118.45 591.817 124.617Z" fill="#965D37"/>
</g>
<g opacity="0.5">
<path d="M648.048 206.074C648.048 221.485 648.048 236.903 648.048 252.314C648.048 258.868 658.236 258.882 658.236 252.314C658.236 236.896 658.236 221.485 658.236 206.074C658.236 199.513 648.048 199.506 648.048 206.074Z" fill="#965D37"/>
</g>
<g opacity="0.5">
<path d="M684.731 273.226C682.13 291.639 683.672 309.502 689.961 327.046C692.162 333.172 702.01 330.53 699.782 324.336C694.152 308.646 692.209 292.481 694.553 275.936C695.463 269.518 685.641 266.746 684.731 273.226Z" fill="#965D37"/>
</g>
<g opacity="0.5">
<path d="M618.184 343.36C621.287 363.485 622.32 383.65 621.505 403.986C621.24 410.54 631.428 410.533 631.693 403.986C632.549 382.713 631.251 361.692 628.011 340.657C627.013 334.191 617.192 336.935 618.184 343.36Z" fill="#965D37"/>
</g>
<g opacity="0.5">
<path d="M671.48 395.672C671.311 411.049 672.452 426.257 674.741 441.464C675.712 447.923 685.533 445.179 684.562 438.754C682.409 424.464 681.505 410.119 681.668 395.672C681.743 389.111 671.555 389.105 671.48 395.672Z" fill="#965D37"/>
</g>
<g opacity="0.5">
<path d="M669.232 101.049C669.063 116.426 670.204 131.64 672.493 146.84C673.464 153.3 683.285 150.556 682.314 144.13C680.161 129.84 679.257 115.495 679.42 101.049C679.488 94.4877 669.307 94.4877 669.232 101.049Z" fill="#965D37"/>
</g>
<g opacity="0.5">
<path d="M720.465 426.195C720.213 444.309 723.473 461.717 730.428 478.46C732.908 484.43 742.77 481.808 740.25 475.75C733.634 459.829 730.408 443.447 730.646 426.195C730.741 419.634 720.553 419.634 720.465 426.195Z" fill="#965D37"/>
</g>
<g opacity="0.5">
<path d="M661.245 498.741C663.887 517.072 667.181 535.268 671.134 553.362C672.533 559.767 682.354 557.057 680.955 550.652C677.002 532.558 673.708 514.362 671.059 496.031C670.136 489.572 660.321 492.322 661.245 498.741Z" fill="#965D37"/>
</g>
<g opacity="0.5">
<path d="M722.176 526.079C721.347 539.283 721.938 552.289 723.704 565.391C724.573 571.857 734.394 569.106 733.525 562.681C731.888 550.523 731.589 538.311 732.357 526.072C732.778 519.532 722.59 519.559 722.176 526.079Z" fill="#965D37"/>
</g>
<path opacity="0.5" d="M720.144 614.89C717.991 613.661 716.517 611.528 714.582 609.98C708.639 605.225 698.417 607.854 695.496 614.877C689.974 607.752 684.452 600.62 678.937 593.489C674.244 587.43 665.985 580.801 659.994 585.576C641.35 551.195 617.32 516.277 606.351 478.48C602.466 465.093 601.305 451.074 600.558 437.157C598.88 406.206 599.05 374.739 590.546 344.936C586.797 331.8 581.404 319.18 577.621 306.051C563.283 256.327 572.581 201.964 557.252 152.539C552.898 138.506 546.629 125.146 540.054 112.004C525.506 82.9478 508.023 52.4313 484.761 28.6797C509.144 55.3383 525.683 90.222 538.805 123.156C544.245 136.808 549.353 150.65 552.497 165.002C563.575 215.555 549.692 268.926 559.758 319.69C562.414 333.09 566.713 346.124 569.335 359.532C575.284 389.953 572.445 421.291 571.481 452.27C571.046 466.207 571.012 480.266 573.749 493.938C581.472 532.537 602.452 569.37 618.108 605.205C624.486 600.96 632.154 608.261 636.311 614.7C641.208 622.273 646.105 629.846 650.995 637.413C654.5 630.655 664.912 628.909 670.427 634.152C672.227 635.857 673.51 638.105 675.555 639.511C681.022 643.274 688.392 639.294 693.458 635.008C698.525 630.723 704.618 625.683 710.982 627.571C713.081 628.196 714.982 629.554 717.169 629.697C720.66 629.921 723.493 627.041 725.72 624.345C729.653 619.584 733.579 614.469 737.376 609.104C732.689 613.722 725.822 618.13 720.144 614.89Z" fill="#965D37"/>
<path d="M229.674 123.15C237.287 104.044 245.628 85.1417 255.897 67.2991C262.071 56.5745 270.724 43.5611 279.962 35.6959C282.21 33.7806 284.207 31.2336 284.349 28.2859C285.382 6.97937 221.347 9.27504 209.467 10.124C183.053 12.0122 155.104 16.5017 130.796 28.7681C95.7353 46.4681 68.7711 78.8183 52.3956 114.035C32.5833 156.641 39.4229 198.548 37.0457 243.891C35.3545 276.139 26.5113 307.505 19.5427 339.033C6.28472 399.014 -0.276348 460.474 0.00891586 521.901C0.0632519 533.115 0.362096 544.478 3.50679 555.236C10.6316 579.592 26.6879 604.886 42.751 624.338C44.9787 627.035 47.811 629.921 51.3021 629.69C53.4891 629.548 55.3909 628.182 57.4896 627.564C63.8537 625.683 69.9461 630.723 75.013 635.008C80.0798 639.294 87.4491 643.274 92.9167 639.512C94.9611 638.106 96.2447 635.857 98.0446 634.153C103.567 628.909 113.972 630.662 117.477 637.413C122.374 629.84 127.264 622.267 132.161 614.7C136.324 608.262 143.986 600.96 150.363 605.205C166.019 569.364 187.006 532.538 194.722 493.939C197.459 480.266 197.418 466.207 196.99 452.27C196.033 421.285 193.194 389.946 199.137 359.532C201.758 346.124 206.058 333.09 208.713 319.69C218.779 268.926 204.896 215.555 215.974 165.002C219.126 150.644 224.233 136.802 229.674 123.15Z" fill="#965D37"/>
<g opacity="0.5">
<path d="M166.82 121.914C159.315 142.161 159.695 163.515 160.157 184.801C160.3 191.348 170.488 191.369 170.345 184.801C169.904 164.37 169.428 144.083 176.641 124.624C178.93 118.463 169.082 115.808 166.82 121.914Z" fill="#965D37"/>
</g>
<g opacity="0.5">
<path d="M110.223 206.074C110.223 221.485 110.223 236.903 110.223 252.314C110.223 258.868 120.411 258.882 120.411 252.314C120.411 236.896 120.411 221.485 120.411 206.074C120.411 199.513 110.223 199.506 110.223 206.074Z" fill="#965D37"/>
</g>
<g opacity="0.5">
<path d="M73.9123 275.929C76.2488 292.461 74.3063 308.646 68.6825 324.329C66.4615 330.51 76.3031 333.172 78.5037 327.039C84.7999 309.495 86.3417 291.639 83.7336 273.219C82.8166 266.76 73.0022 269.511 73.9123 275.929Z" fill="#965D37"/>
</g>
<g opacity="0.5">
<path d="M140.454 340.65C137.207 361.685 135.917 382.706 136.766 403.979C137.031 410.513 147.219 410.547 146.954 403.979C146.139 383.644 147.171 363.478 150.275 343.353C151.274 336.949 141.452 334.184 140.454 340.65Z" fill="#965D37"/>
</g>
<g opacity="0.5">
<path d="M86.7969 395.672C86.9599 410.118 86.0566 424.463 83.9035 438.753C82.939 445.165 92.7535 447.936 93.7247 441.463C96.0136 426.263 97.1547 411.049 96.9849 395.672C96.9102 389.118 86.7222 389.104 86.7969 395.672Z" fill="#965D37"/>
</g>
<g opacity="0.5">
<path d="M89.045 101.049C89.208 115.495 88.3046 129.84 86.1516 144.13C85.1871 150.542 95.0015 153.313 95.9728 146.84C98.2617 131.64 99.4028 116.426 99.233 101.049C99.1583 94.4945 88.9703 94.4809 89.045 101.049Z" fill="#965D37"/>
</g>
<g opacity="0.5">
<path d="M37.8133 426.196C38.0578 443.454 34.8248 459.83 28.2094 475.75C25.6964 481.802 35.5516 484.437 38.0306 478.46C44.9857 461.718 48.2526 444.31 47.9945 426.196C47.913 419.642 37.725 419.621 37.8133 426.196Z" fill="#965D37"/>
</g>
<g opacity="0.5">
<path d="M97.3924 496.038C94.7503 514.369 91.4562 532.565 87.5032 550.659C86.1041 557.05 95.9253 559.78 97.3245 553.369C101.277 535.275 104.572 517.079 107.22 498.748C108.144 492.329 98.3297 489.558 97.3924 496.038Z" fill="#965D37"/>
</g>
<g opacity="0.5">
<path d="M36.1017 526.079C36.8692 538.311 36.5704 550.53 34.9335 562.688C34.0709 569.099 43.8854 571.871 44.7547 565.398C46.5207 552.296 47.1183 539.289 46.2897 526.086C45.8754 519.565 35.6874 519.518 36.1017 526.079Z" fill="#965D37"/>
</g>
<path opacity="0.5" d="M48.3202 614.89C50.4733 613.661 51.9471 611.528 53.8828 609.98C59.8258 605.225 70.0546 607.854 72.9683 614.877C78.4902 607.752 84.0122 600.62 89.5273 593.489C94.2205 587.43 102.48 580.801 108.47 585.576C127.114 551.195 151.144 516.277 162.113 478.48C165.998 465.093 167.16 451.074 167.907 437.157C169.578 406.206 169.408 374.739 177.918 344.936C181.668 331.8 187.06 319.18 190.844 306.051C205.181 256.327 195.883 201.964 211.213 152.539C215.566 138.506 221.829 125.146 228.41 112.004C242.959 82.9478 260.441 52.4313 283.704 28.6797C259.32 55.3383 242.782 90.222 229.66 123.156C224.219 136.808 219.112 150.65 215.967 165.002C204.889 215.555 218.772 268.926 208.706 319.69C206.051 333.09 201.751 346.124 199.13 359.532C193.18 389.953 196.019 421.291 196.983 452.27C197.411 466.207 197.452 480.266 194.715 493.938C186.992 532.537 166.012 569.37 150.356 605.205C143.979 600.96 136.311 608.261 132.154 614.7C127.257 622.273 122.36 629.846 117.47 637.413C113.965 630.655 103.553 628.909 98.0376 634.152C96.2377 635.857 94.954 638.105 92.9096 639.511C87.4421 643.274 80.0728 639.294 75.006 635.008C69.9391 630.723 63.8467 625.683 57.4826 627.571C55.3839 628.196 53.4821 629.554 51.2951 629.697C47.804 629.921 44.9717 627.041 42.744 624.345C38.8114 619.584 34.8856 614.469 31.0889 609.104C35.7753 613.722 42.6421 618.13 48.3202 614.89Z" fill="#965D37"/>
</svg>
