<svg width="668" height="529" viewBox="0 0 668 529" fill="none" xmlns="http://www.w3.org/2000/svg">
<path d="M209.601 190.923C228.225 177.129 254.265 149.343 241.585 125.197C220.917 85.851 188.186 60.442 149.641 40.9014C149.125 44.1073 148.609 47.3064 148.1 50.5122C131.038 42.484 116.021 30.1498 104.835 14.9765C105.004 19.5339 105.181 24.0913 105.351 28.6488C81.3478 25.0558 58.3366 15.0714 39.3122 0C42.4365 4.9242 43.7541 10.9079 42.3278 16.4502C29.8102 12.8776 15.4722 14.0256 3.57944 8.82288C10.9556 14.3652 16.8646 21.6868 20.281 30.2923C12.803 30.6726 5.48794 33.7631 0 38.8639C6.5339 46.0431 13.0678 53.2221 19.6017 60.4013C20.6273 61.5288 21.714 62.8056 21.7208 64.3406C21.7208 74.2365 -1.59607 72.131 11.4106 89.2536C15.3907 94.4902 19.364 99.727 23.3441 104.964C25.7009 108.074 28.1392 112.313 25.993 115.579C25.0217 117.06 23.3102 117.882 22.1487 119.22C18.8682 122.996 21.1028 128.804 23.4121 133.246C35.8754 157.119 47.347 181.509 57.7863 206.327C63.8448 220.733 70.0324 260.303 91.4339 258.293C95.3665 257.926 98.9595 256.004 102.43 254.109C135.969 235.791 169.005 216.556 201.491 196.438C204.134 194.801 206.857 192.954 209.601 190.923Z" fill="#A97043"/>
<mask id="mask0_1606_380" style="mask-type:luminance" maskUnits="userSpaceOnUse" x="0" y="0" width="245" height="259">
<path d="M209.601 190.923C228.225 177.129 254.265 149.343 241.585 125.197C220.917 85.851 188.186 60.442 149.641 40.9014C149.125 44.1073 148.609 47.3064 148.1 50.5122C131.038 42.484 116.021 30.1498 104.835 14.9765C105.004 19.5339 105.181 24.0913 105.351 28.6488C81.3478 25.0558 58.3366 15.0714 39.3122 0C42.4365 4.9242 43.7541 10.9079 42.3278 16.4502C29.8102 12.8776 15.4722 14.0256 3.57944 8.82288C10.9556 14.3652 16.8646 21.6868 20.281 30.2923C12.803 30.6726 5.48794 33.7631 0 38.8639C6.5339 46.0431 13.0678 53.2221 19.6017 60.4013C20.6273 61.5288 21.714 62.8056 21.7208 64.3406C21.7208 74.2365 -1.59607 72.131 11.4106 89.2536C15.3907 94.4902 19.364 99.727 23.3441 104.964C25.7009 108.074 28.1392 112.313 25.993 115.579C25.0217 117.06 23.3102 117.882 22.1487 119.22C18.8682 122.996 21.1028 128.804 23.4121 133.246C35.8754 157.119 47.347 181.509 57.7863 206.327C63.8448 220.733 70.0324 260.303 91.4339 258.293C95.3665 257.926 98.9595 256.004 102.43 254.109C135.969 235.791 169.005 216.556 201.491 196.438C204.134 194.801 206.857 192.954 209.601 190.923Z" fill="white"/>
</mask>
<g mask="url(#mask0_1606_380)">
<path d="M189.293 135.745C202.184 140.099 216.563 133.279 226.398 124.952C241.795 111.912 258.259 84.574 249.47 63.6818C244.009 50.7023 228.836 43.6793 223.803 30.53C220.957 23.0996 221.799 14.759 219.823 7.05006C217.846 -0.658865 210.864 -8.43564 203.155 -6.46596C198.754 -5.34528 195.378 -1.28359 190.862 -0.835321C184.579 -0.210457 180.028 -6.65611 177.76 -12.5516C175.498 -18.4402 173.467 -25.3205 167.762 -28.0305C160.053 -31.6914 151.645 -25.3682 143.515 -22.7804C135.059 -20.084 125.767 -21.5375 117.175 -19.2961C97.5668 -14.1885 87.4467 9.38652 90.8291 29.3618C94.2116 49.3371 107.544 66.0795 121.386 80.8724C132.994 93.2814 145.301 105.031 158.24 116.048C167.633 124.042 177.604 131.799 189.293 135.745Z" fill="#524543"/>
</g>
<path d="M133.578 88.4183C110.363 77.6122 82.1833 69.2104 71.8187 87.6779C64.7279 100.311 71.6829 120.361 75.6969 132.79C85.7899 164.02 101.554 198.863 122.378 224.598C122.983 225.345 123.642 226.119 124.552 226.452C126.474 227.158 128.423 225.63 129.924 224.238C150.844 204.758 176.599 189.531 201.288 175.288C203.203 174.188 205.193 173.006 206.334 171.104C224.034 141.552 183.69 115.681 162.417 103.7C156.203 100.196 145.553 93.9877 133.578 88.4183Z" fill="#E5928C"/>
<path d="M466.162 190.923C446.893 176.646 426.286 154.681 432.508 129C439.028 102.104 467.771 79.5407 490.654 66.5408C489.744 69.2644 489.927 72.3413 491.163 74.9359C500.706 66.5274 511.166 59.1647 522.298 53.0111C526.563 50.6543 534.612 51.1434 533.294 55.8367C546.151 44.9763 561.359 36.9209 577.564 32.3771C577.965 35.5761 578.366 38.7685 578.766 41.9675C599.523 26.1286 629.734 28.1864 651.013 13.0607C650.938 17.3668 650.864 21.673 650.789 25.9859C656.433 19.8731 662.077 13.7603 667.721 7.64746C665.29 20.7832 665.29 34.3604 667.714 47.4962C656.514 113.324 642.068 181.149 608.237 239.968C602.932 249.198 594.911 259.298 584.309 258.299C580.376 257.933 576.783 256.01 573.312 254.116C539.773 235.797 506.737 216.563 474.251 196.445C471.629 194.801 468.899 192.954 466.162 190.923Z" fill="#A97043"/>
<path d="M542.185 88.4183C565.4 77.6122 593.58 69.2104 603.944 87.6779C611.035 100.311 604.087 120.361 600.066 132.79C589.98 164.02 574.209 198.863 553.385 224.598C552.78 225.345 552.121 226.119 551.218 226.452C549.296 227.158 547.347 225.63 545.846 224.238C524.926 204.758 499.171 189.531 474.482 175.288C472.567 174.188 470.577 173.006 469.436 171.104C451.736 141.552 492.08 115.681 513.353 103.7C519.554 100.196 530.21 93.9877 542.185 88.4183Z" fill="#E5928C"/>
<path d="M366.204 520.912C361.11 524.96 356.281 529.769 350.677 527.501C345.502 525.402 343.879 518.073 338.594 516.26C330.145 513.353 323.781 526.862 314.863 526.36C306.285 525.871 303.398 513.414 295.255 510.67C286.167 507.607 277.752 518.263 268.161 518.175C257.756 518.073 252.092 506.255 248.879 496.353C241.313 499.239 228.727 507.125 220.325 504.944C210.857 502.486 210.409 491.381 203.454 486.144C193.347 478.537 171.674 486.749 165.711 474.007C164.128 470.624 164.128 466.047 160.895 464.172C157.431 462.162 153.241 464.912 149.274 465.429C139.793 466.651 133.999 455.553 126.018 450.282C117.318 444.543 105.982 445.997 95.5767 445.351C93.641 445.229 91.6305 444.998 90.0208 443.925C85.0286 440.597 87.4942 433.031 87.6504 427.033C88.0511 411.942 71.2817 403.044 57.1339 397.787C61.7865 389.066 66.5476 379.958 66.8804 370.082C67.2132 360.207 61.671 349.38 52.0604 347.071C41.8588 344.626 40.5071 343.193 42.993 334.39C43.1832 333.725 57.4396 312.445 53.7448 312.663C45.6012 313.145 37.3896 312.595 29.3818 311.046C43.4073 296.742 56.4343 281.467 68.3407 265.363C60.5367 264.718 52.8211 263.013 45.4721 260.317C56.5159 252.323 66.8737 243.378 76.3757 233.604C67.5665 230.127 58.7572 226.642 49.948 223.165C66.0518 213.771 82.862 205.6 100.195 198.747C96.806 196.092 93.4168 193.436 90.0276 190.781C104.963 177.034 123.159 166.852 142.686 161.303C133.856 159.374 125.455 155.496 118.255 150.029C135.602 143.746 152.942 137.463 170.289 131.181C165.201 126.229 160.114 121.285 155.027 116.333C174.099 115.518 193.171 114.71 212.243 113.902C209.017 110.187 205.784 106.471 202.557 102.749C213.228 102.45 242.067 106.838 250.224 99.1428C258.272 91.5494 250.618 79.0995 247.799 70.6367C262.076 78.4067 276.081 85.8373 291.757 90.6188C294.27 91.3863 297.041 92.0858 299.452 91.0398C301.435 90.1772 302.753 88.3027 303.962 86.5164C311.216 75.8462 318.47 65.1693 325.724 54.499C326.07 62.8804 329.969 71.0511 336.258 76.5933C341.542 70.8201 346.82 65.0402 352.104 59.267C353.415 65.7398 354.719 72.2124 356.03 78.692C356.383 80.4375 356.919 82.4209 358.543 83.1613C360.159 83.8948 362.006 82.9981 363.548 82.1152C370.286 78.2777 377.024 74.4402 383.761 70.6095C382.797 79.6632 385.038 92.4799 394.139 92.1742C400.273 91.9705 408.633 86.0681 410.82 91.8074C411.459 93.485 410.868 95.3936 411.276 97.1391C413.476 106.587 460.803 95.5362 470.162 95.5837C469.578 101.751 468.987 107.911 468.403 114.078C481.593 116.252 494.783 118.432 507.98 120.606C504.319 126.365 501.473 132.648 499.572 139.195C514.079 144.262 528.594 149.329 543.102 154.402C543.197 159.476 541.417 164.557 538.177 168.462C549.024 168.965 559.871 169.46 570.718 169.963C572.07 170.024 573.577 170.16 574.474 171.179C576.308 173.264 573.937 176.239 572.511 178.616C569.23 184.09 571.533 191.528 576.07 196.017C580.607 200.507 586.849 202.741 592.873 204.853C590.734 210.056 588.594 215.252 586.448 220.455C597.01 226.642 607.578 232.837 618.14 239.024C607.571 232.83 604.379 255.162 608.753 260.989C610.926 263.883 615.987 265.628 618.608 268.97C623.22 274.838 625.808 284.401 628.144 291.404C616.951 289.747 607.462 304.723 613.731 314.137C616.081 317.669 619.831 320.019 622.541 323.279C625.257 326.539 626.731 331.667 623.953 334.873C622.221 336.876 619.328 337.528 617.508 339.444C613.949 343.172 616.095 349.374 619.084 353.578C622.072 357.775 625.943 362.17 625.325 367.291C624.571 373.512 617.841 376.773 612.991 380.739C608.142 384.712 605.595 393.882 611.422 396.177C602.572 399.329 593.715 402.474 584.865 405.625C590.571 410.576 587.582 420.812 581.103 424.69C574.616 428.568 566.48 427.916 558.995 426.857C556.332 426.477 553.215 426.212 551.367 428.161C550.036 429.56 549.839 431.659 549.71 433.588C549.377 438.648 549.045 443.715 548.705 448.775C541.417 449.039 527.507 446.853 523.445 452.503C522.216 454.208 524.274 477.45 523.33 477.45C511.098 476.649 498.865 475.841 486.626 475.032C483.488 482.898 481.906 491.374 482.001 499.844C470.407 498.913 458.813 497.976 447.219 497.038C445.365 502.995 443.517 508.952 441.663 514.908C434.457 514.1 428.127 509.23 420.886 508.728C411.466 508.075 402.351 516.294 402.032 525.735C392.91 519.208 381.201 512.415 371.216 517.53C369.505 518.386 367.841 519.608 366.204 520.912Z" fill="#A97043"/>
<mask id="mask1_1606_380" style="mask-type:luminance" maskUnits="userSpaceOnUse" x="29" y="54" width="600" height="475">
<path d="M366.204 520.912C361.11 524.96 356.281 529.769 350.677 527.501C345.502 525.402 343.879 518.073 338.594 516.26C330.145 513.353 323.781 526.862 314.863 526.36C306.285 525.871 303.398 513.414 295.255 510.67C286.167 507.607 277.752 518.263 268.161 518.175C257.756 518.073 252.092 506.255 248.879 496.353C241.313 499.239 228.727 507.125 220.325 504.944C210.857 502.486 210.409 491.381 203.454 486.144C193.347 478.537 171.674 486.749 165.711 474.007C164.128 470.624 164.128 466.047 160.895 464.172C157.431 462.162 153.241 464.912 149.274 465.429C139.793 466.651 133.999 455.553 126.018 450.282C117.318 444.543 105.982 445.997 95.5767 445.351C93.641 445.229 91.6305 444.998 90.0208 443.925C85.0286 440.597 87.4942 433.031 87.6504 427.033C88.0511 411.942 71.2817 403.044 57.1339 397.787C61.7865 389.066 66.5476 379.958 66.8804 370.082C67.2132 360.207 61.671 349.38 52.0604 347.071C41.8588 344.626 40.5071 343.193 42.993 334.39C43.1832 333.725 57.4396 312.445 53.7448 312.663C45.6012 313.145 37.3896 312.595 29.3818 311.046C43.4073 296.742 56.4343 281.467 68.3407 265.363C60.5367 264.718 52.8211 263.013 45.4721 260.317C56.5159 252.323 66.8737 243.378 76.3757 233.604C67.5665 230.127 58.7572 226.642 49.948 223.165C66.0518 213.771 82.862 205.6 100.195 198.747C96.806 196.092 93.4168 193.436 90.0276 190.781C104.963 177.034 123.159 166.852 142.686 161.303C133.856 159.374 125.455 155.496 118.255 150.029C135.602 143.746 152.942 137.463 170.289 131.181C165.201 126.229 160.114 121.285 155.027 116.333C174.099 115.518 193.171 114.71 212.243 113.902C209.017 110.187 205.784 106.471 202.557 102.749C213.228 102.45 242.067 106.838 250.224 99.1428C258.272 91.5494 250.618 79.0995 247.799 70.6367C262.076 78.4067 276.081 85.8373 291.757 90.6188C294.27 91.3863 297.041 92.0858 299.452 91.0398C301.435 90.1772 302.753 88.3027 303.962 86.5164C311.216 75.8462 318.47 65.1693 325.724 54.499C326.07 62.8804 329.969 71.0511 336.258 76.5933C341.542 70.8201 346.82 65.0402 352.104 59.267C353.415 65.7398 354.719 72.2124 356.03 78.692C356.383 80.4375 356.919 82.4209 358.543 83.1613C360.159 83.8948 362.006 82.9981 363.548 82.1152C370.286 78.2777 377.024 74.4402 383.761 70.6095C382.797 79.6632 385.038 92.4799 394.139 92.1742C400.273 91.9705 408.633 86.0681 410.82 91.8074C411.459 93.485 410.868 95.3936 411.276 97.1391C413.476 106.587 460.803 95.5362 470.162 95.5837C469.578 101.751 468.987 107.911 468.403 114.078C481.593 116.252 494.783 118.432 507.98 120.606C504.319 126.365 501.473 132.648 499.572 139.195C514.079 144.262 528.594 149.329 543.102 154.402C543.197 159.476 541.417 164.557 538.177 168.462C549.024 168.965 559.871 169.46 570.718 169.963C572.07 170.024 573.577 170.16 574.474 171.179C576.308 173.264 573.937 176.239 572.511 178.616C569.23 184.09 571.533 191.528 576.07 196.017C580.607 200.507 586.849 202.741 592.873 204.853C590.734 210.056 588.594 215.252 586.448 220.455C597.01 226.642 607.578 232.837 618.14 239.024C607.571 232.83 604.379 255.162 608.753 260.989C610.926 263.883 615.987 265.628 618.608 268.97C623.22 274.838 625.808 284.401 628.144 291.404C616.951 289.747 607.462 304.723 613.731 314.137C616.081 317.669 619.831 320.019 622.541 323.279C625.257 326.539 626.731 331.667 623.953 334.873C622.221 336.876 619.328 337.528 617.508 339.444C613.949 343.172 616.095 349.374 619.084 353.578C622.072 357.775 625.943 362.17 625.325 367.291C624.571 373.512 617.841 376.773 612.991 380.739C608.142 384.712 605.595 393.882 611.422 396.177C602.572 399.329 593.715 402.474 584.865 405.625C590.571 410.576 587.582 420.812 581.103 424.69C574.616 428.568 566.48 427.916 558.995 426.857C556.332 426.477 553.215 426.212 551.367 428.161C550.036 429.56 549.839 431.659 549.71 433.588C549.377 438.648 549.045 443.715 548.705 448.775C541.417 449.039 527.507 446.853 523.445 452.503C522.216 454.208 524.274 477.45 523.33 477.45C511.098 476.649 498.865 475.841 486.626 475.032C483.488 482.898 481.906 491.374 482.001 499.844C470.407 498.913 458.813 497.976 447.219 497.038C445.365 502.995 443.517 508.952 441.663 514.908C434.457 514.1 428.127 509.23 420.886 508.728C411.466 508.075 402.351 516.294 402.032 525.735C392.91 519.208 381.201 512.415 371.216 517.53C369.505 518.386 367.841 519.608 366.204 520.912Z" fill="white"/>
</mask>
<g mask="url(#mask1_1606_380)">
<path d="M225.766 18.9563C208.847 23.1878 198.055 40.4938 193.212 56.2852C185.632 81.0081 186.8 121.896 210.735 138.346C225.617 148.568 246.835 145.634 261.377 156.338C269.588 162.39 274.451 171.967 281.922 178.915C289.394 185.863 302.305 189.422 309.26 181.958C313.227 177.699 314.062 170.988 318.626 167.375C324.97 162.356 334.343 166.152 340.863 170.941C347.384 175.729 354.339 181.747 362.36 180.721C373.207 179.343 377.9 166.696 384.876 158.274C392.136 149.512 403.159 144.649 410.875 136.288C428.494 117.209 423.087 84.7707 405.611 65.5697C388.129 46.3619 362.17 37.5324 336.992 31.1616C315.882 25.8162 294.474 21.6596 272.889 18.7254C257.227 16.586 241.096 15.1189 225.766 18.9563Z" fill="#524543"/>
</g>
<mask id="mask2_1606_380" style="mask-type:luminance" maskUnits="userSpaceOnUse" x="29" y="54" width="600" height="475">
<path d="M366.204 520.912C361.11 524.96 356.281 529.769 350.677 527.501C345.502 525.402 343.879 518.073 338.594 516.26C330.145 513.353 323.781 526.862 314.863 526.36C306.285 525.871 303.398 513.414 295.255 510.67C286.167 507.607 277.752 518.263 268.161 518.175C257.756 518.073 252.092 506.255 248.879 496.353C241.313 499.239 228.727 507.125 220.325 504.944C210.857 502.486 210.409 491.381 203.454 486.144C193.347 478.537 171.674 486.749 165.711 474.007C164.128 470.624 164.128 466.047 160.895 464.172C157.431 462.162 153.241 464.912 149.274 465.429C139.793 466.651 133.999 455.553 126.018 450.282C117.318 444.543 105.982 445.997 95.5767 445.351C93.641 445.229 91.6305 444.998 90.0208 443.925C85.0286 440.597 87.4942 433.031 87.6504 427.033C88.0511 411.942 71.2817 403.044 57.1339 397.787C61.7865 389.066 66.5476 379.958 66.8804 370.082C67.2132 360.207 61.671 349.38 52.0604 347.071C41.8588 344.626 40.5071 343.193 42.993 334.39C43.1832 333.725 57.4396 312.445 53.7448 312.663C45.6012 313.145 37.3896 312.595 29.3818 311.046C43.4073 296.742 56.4343 281.467 68.3407 265.363C60.5367 264.718 52.8211 263.013 45.4721 260.317C56.5159 252.323 66.8737 243.378 76.3757 233.604C67.5665 230.127 58.7572 226.642 49.948 223.165C66.0518 213.771 82.862 205.6 100.195 198.747C96.806 196.092 93.4168 193.436 90.0276 190.781C104.963 177.034 123.159 166.852 142.686 161.303C133.856 159.374 125.455 155.496 118.255 150.029C135.602 143.746 152.942 137.463 170.289 131.181C165.201 126.229 160.114 121.285 155.027 116.333C174.099 115.518 193.171 114.71 212.243 113.902C209.017 110.187 205.784 106.471 202.557 102.749C213.228 102.45 242.067 106.838 250.224 99.1428C258.272 91.5494 250.618 79.0995 247.799 70.6367C262.076 78.4067 276.081 85.8373 291.757 90.6188C294.27 91.3863 297.041 92.0858 299.452 91.0398C301.435 90.1772 302.753 88.3027 303.962 86.5164C311.216 75.8462 318.47 65.1693 325.724 54.499C326.07 62.8804 329.969 71.0511 336.258 76.5933C341.542 70.8201 346.82 65.0402 352.104 59.267C353.415 65.7398 354.719 72.2124 356.03 78.692C356.383 80.4375 356.919 82.4209 358.543 83.1613C360.159 83.8948 362.006 82.9981 363.548 82.1152C370.286 78.2777 377.024 74.4402 383.761 70.6095C382.797 79.6632 385.038 92.4799 394.139 92.1742C400.273 91.9705 408.633 86.0681 410.82 91.8074C411.459 93.485 410.868 95.3936 411.276 97.1391C413.476 106.587 460.803 95.5362 470.162 95.5837C469.578 101.751 468.987 107.911 468.403 114.078C481.593 116.252 494.783 118.432 507.98 120.606C504.319 126.365 501.473 132.648 499.572 139.195C514.079 144.262 528.594 149.329 543.102 154.402C543.197 159.476 541.417 164.557 538.177 168.462C549.024 168.965 559.871 169.46 570.718 169.963C572.07 170.024 573.577 170.16 574.474 171.179C576.308 173.264 573.937 176.239 572.511 178.616C569.23 184.09 571.533 191.528 576.07 196.017C580.607 200.507 586.849 202.741 592.873 204.853C590.734 210.056 588.594 215.252 586.448 220.455C597.01 226.642 607.578 232.837 618.14 239.024C607.571 232.83 604.379 255.162 608.753 260.989C610.926 263.883 615.987 265.628 618.608 268.97C623.22 274.838 625.808 284.401 628.144 291.404C616.951 289.747 607.462 304.723 613.731 314.137C616.081 317.669 619.831 320.019 622.541 323.279C625.257 326.539 626.731 331.667 623.953 334.873C622.221 336.876 619.328 337.528 617.508 339.444C613.949 343.172 616.095 349.374 619.084 353.578C622.072 357.775 625.943 362.17 625.325 367.291C624.571 373.512 617.841 376.773 612.991 380.739C608.142 384.712 605.595 393.882 611.422 396.177C602.572 399.329 593.715 402.474 584.865 405.625C590.571 410.576 587.582 420.812 581.103 424.69C574.616 428.568 566.48 427.916 558.995 426.857C556.332 426.477 553.215 426.212 551.367 428.161C550.036 429.56 549.839 431.659 549.71 433.588C549.377 438.648 549.045 443.715 548.705 448.775C541.417 449.039 527.507 446.853 523.445 452.503C522.216 454.208 524.274 477.45 523.33 477.45C511.098 476.649 498.865 475.841 486.626 475.032C483.488 482.898 481.906 491.374 482.001 499.844C470.407 498.913 458.813 497.976 447.219 497.038C445.365 502.995 443.517 508.952 441.663 514.908C434.457 514.1 428.127 509.23 420.886 508.728C411.466 508.075 402.351 516.294 402.032 525.735C392.91 519.208 381.201 512.415 371.216 517.53C369.505 518.386 367.841 519.608 366.204 520.912Z" fill="white"/>
</mask>
<g mask="url(#mask2_1606_380)">
<path d="M350.216 197.199C349.686 196.921 349.17 196.615 348.66 196.269C344.51 193.47 341.841 188.757 337.454 186.339C329.867 182.162 320.331 186.386 313.749 192.01C307.168 197.634 301.531 204.854 293.428 207.903C283.063 211.809 269.16 208.861 262.538 217.738C258.239 223.505 259.441 231.533 260.84 238.583C268.583 277.535 273.575 322.335 253.457 358.74C246.02 372.195 233.781 382.261 221.467 391.464C183.52 419.821 141.98 443.355 98.1511 461.326C83.752 467.229 66.4053 476.384 67.0641 491.931C67.3901 499.667 72.4501 506.317 77.5849 512.11C105.371 543.455 141.776 566.242 180.273 582.761C281.956 626.392 401.353 626.861 503.375 584.024C554.607 562.514 587.521 526.265 552.821 473.885C535.019 447.009 507.62 429.323 481.206 411.894C460.851 398.467 438.525 385.901 423.909 365.797C408.491 344.592 406.453 311.305 406.698 285.937C406.97 257.533 414.604 231.112 390.893 209.649C387.11 206.226 382.974 203.013 378.124 201.444C369.118 198.537 358.407 201.505 350.216 197.199Z" fill="#E4D7CC"/>
</g>
<mask id="mask3_1606_380" style="mask-type:luminance" maskUnits="userSpaceOnUse" x="29" y="54" width="600" height="475">
<path d="M366.204 520.912C361.11 524.96 356.281 529.769 350.677 527.501C345.502 525.402 343.879 518.073 338.594 516.26C330.145 513.353 323.781 526.862 314.863 526.36C306.285 525.871 303.398 513.414 295.255 510.67C286.167 507.607 277.752 518.263 268.161 518.175C257.756 518.073 252.092 506.255 248.879 496.353C241.313 499.239 228.727 507.125 220.325 504.944C210.857 502.486 210.409 491.381 203.454 486.144C193.347 478.537 171.674 486.749 165.711 474.007C164.128 470.624 164.128 466.047 160.895 464.172C157.431 462.162 153.241 464.912 149.274 465.429C139.793 466.651 133.999 455.553 126.018 450.282C117.318 444.543 105.982 445.997 95.5767 445.351C93.641 445.229 91.6305 444.998 90.0208 443.925C85.0286 440.597 87.4942 433.031 87.6504 427.033C88.0511 411.942 71.2817 403.044 57.1339 397.787C61.7865 389.066 66.5476 379.958 66.8804 370.082C67.2132 360.207 61.671 349.38 52.0604 347.071C41.8588 344.626 40.5071 343.193 42.993 334.39C43.1832 333.725 57.4396 312.445 53.7448 312.663C45.6012 313.145 37.3896 312.595 29.3818 311.046C43.4073 296.742 56.4343 281.467 68.3407 265.363C60.5367 264.718 52.8211 263.013 45.4721 260.317C56.5159 252.323 66.8737 243.378 76.3757 233.604C67.5665 230.127 58.7572 226.642 49.948 223.165C66.0518 213.771 82.862 205.6 100.195 198.747C96.806 196.092 93.4168 193.436 90.0276 190.781C104.963 177.034 123.159 166.852 142.686 161.303C133.856 159.374 125.455 155.496 118.255 150.029C135.602 143.746 152.942 137.463 170.289 131.181C165.201 126.229 160.114 121.285 155.027 116.333C174.099 115.518 193.171 114.71 212.243 113.902C209.017 110.187 205.784 106.471 202.557 102.749C213.228 102.45 242.067 106.838 250.224 99.1428C258.272 91.5494 250.618 79.0995 247.799 70.6367C262.076 78.4067 276.081 85.8373 291.757 90.6188C294.27 91.3863 297.041 92.0858 299.452 91.0398C301.435 90.1772 302.753 88.3027 303.962 86.5164C311.216 75.8462 318.47 65.1693 325.724 54.499C326.07 62.8804 329.969 71.0511 336.258 76.5933C341.542 70.8201 346.82 65.0402 352.104 59.267C353.415 65.7398 354.719 72.2124 356.03 78.692C356.383 80.4375 356.919 82.4209 358.543 83.1613C360.159 83.8948 362.006 82.9981 363.548 82.1152C370.286 78.2777 377.024 74.4402 383.761 70.6095C382.797 79.6632 385.038 92.4799 394.139 92.1742C400.273 91.9705 408.633 86.0681 410.82 91.8074C411.459 93.485 410.868 95.3936 411.276 97.1391C413.476 106.587 460.803 95.5362 470.162 95.5837C469.578 101.751 468.987 107.911 468.403 114.078C481.593 116.252 494.783 118.432 507.98 120.606C504.319 126.365 501.473 132.648 499.572 139.195C514.079 144.262 528.594 149.329 543.102 154.402C543.197 159.476 541.417 164.557 538.177 168.462C549.024 168.965 559.871 169.46 570.718 169.963C572.07 170.024 573.577 170.16 574.474 171.179C576.308 173.264 573.937 176.239 572.511 178.616C569.23 184.09 571.533 191.528 576.07 196.017C580.607 200.507 586.849 202.741 592.873 204.853C590.734 210.056 588.594 215.252 586.448 220.455C597.01 226.642 607.578 232.837 618.14 239.024C607.571 232.83 604.379 255.162 608.753 260.989C610.926 263.883 615.987 265.628 618.608 268.97C623.22 274.838 625.808 284.401 628.144 291.404C616.951 289.747 607.462 304.723 613.731 314.137C616.081 317.669 619.831 320.019 622.541 323.279C625.257 326.539 626.731 331.667 623.953 334.873C622.221 336.876 619.328 337.528 617.508 339.444C613.949 343.172 616.095 349.374 619.084 353.578C622.072 357.775 625.943 362.17 625.325 367.291C624.571 373.512 617.841 376.773 612.991 380.739C608.142 384.712 605.595 393.882 611.422 396.177C602.572 399.329 593.715 402.474 584.865 405.625C590.571 410.576 587.582 420.812 581.103 424.69C574.616 428.568 566.48 427.916 558.995 426.857C556.332 426.477 553.215 426.212 551.367 428.161C550.036 429.56 549.839 431.659 549.71 433.588C549.377 438.648 549.045 443.715 548.705 448.775C541.417 449.039 527.507 446.853 523.445 452.503C522.216 454.208 524.274 477.45 523.33 477.45C511.098 476.649 498.865 475.841 486.626 475.032C483.488 482.898 481.906 491.374 482.001 499.844C470.407 498.913 458.813 497.976 447.219 497.038C445.365 502.995 443.517 508.952 441.663 514.908C434.457 514.1 428.127 509.23 420.886 508.728C411.466 508.075 402.351 516.294 402.032 525.735C392.91 519.208 381.201 512.415 371.216 517.53C369.505 518.386 367.841 519.608 366.204 520.912Z" fill="white"/>
</mask>
<g mask="url(#mask3_1606_380)">
<path opacity="0.1" d="M475.534 156.8C437.384 135.84 397.773 121.183 351.92 117.801C271.557 111.871 191.187 140.337 128.3 189.782C116.258 199.25 88.9066 233.57 71.8994 226.432C74.5958 203.19 91.4197 186.583 107.041 170.921C125.692 152.223 143.691 133.076 164.182 116.313C215.272 74.5152 267.781 61.0874 332.767 59.9803C408.579 58.6898 502.356 69.0273 559.789 123.988C571.988 135.664 582.264 149.173 592.235 162.798C601.153 174.982 617.209 197.131 611.463 213.568C601.811 241.13 521.734 185.062 509.963 177.468C498.539 170.092 487.108 163.158 475.534 156.8Z" fill="white"/>
</g>
<mask id="mask4_1606_380" style="mask-type:luminance" maskUnits="userSpaceOnUse" x="29" y="54" width="600" height="475">
<path d="M366.204 520.912C361.11 524.96 356.281 529.769 350.677 527.501C345.502 525.402 343.879 518.073 338.594 516.26C330.145 513.353 323.781 526.862 314.863 526.36C306.285 525.871 303.398 513.414 295.255 510.67C286.167 507.607 277.752 518.263 268.161 518.175C257.756 518.073 252.092 506.255 248.879 496.353C241.313 499.239 228.727 507.125 220.325 504.944C210.857 502.486 210.409 491.381 203.454 486.144C193.347 478.537 171.674 486.749 165.711 474.007C164.128 470.624 164.128 466.047 160.895 464.172C157.431 462.162 153.241 464.912 149.274 465.429C139.793 466.651 133.999 455.553 126.018 450.282C117.318 444.543 105.982 445.997 95.5767 445.351C93.641 445.229 91.6305 444.998 90.0208 443.925C85.0286 440.597 87.4942 433.031 87.6504 427.033C88.0511 411.942 71.2817 403.044 57.1339 397.787C61.7865 389.066 66.5476 379.958 66.8804 370.082C67.2132 360.207 61.671 349.38 52.0604 347.071C41.8588 344.626 40.5071 343.193 42.993 334.39C43.1832 333.725 57.4396 312.445 53.7448 312.663C45.6012 313.145 37.3896 312.595 29.3818 311.046C43.4073 296.742 56.4343 281.467 68.3407 265.363C60.5367 264.718 52.8211 263.013 45.4721 260.317C56.5159 252.323 66.8737 243.378 76.3757 233.604C67.5665 230.127 58.7572 226.642 49.948 223.165C66.0518 213.771 82.862 205.6 100.195 198.747C96.806 196.092 93.4168 193.436 90.0276 190.781C104.963 177.034 123.159 166.852 142.686 161.303C133.856 159.374 125.455 155.496 118.255 150.029C135.602 143.746 152.942 137.463 170.289 131.181C165.201 126.229 160.114 121.285 155.027 116.333C174.099 115.518 193.171 114.71 212.243 113.902C209.017 110.187 205.784 106.471 202.557 102.749C213.228 102.45 242.067 106.838 250.224 99.1428C258.272 91.5494 250.618 79.0995 247.799 70.6367C262.076 78.4067 276.081 85.8373 291.757 90.6188C294.27 91.3863 297.041 92.0858 299.452 91.0398C301.435 90.1772 302.753 88.3027 303.962 86.5164C311.216 75.8462 318.47 65.1693 325.724 54.499C326.07 62.8804 329.969 71.0511 336.258 76.5933C341.542 70.8201 346.82 65.0402 352.104 59.267C353.415 65.7398 354.719 72.2124 356.03 78.692C356.383 80.4375 356.919 82.4209 358.543 83.1613C360.159 83.8948 362.006 82.9981 363.548 82.1152C370.286 78.2777 377.024 74.4402 383.761 70.6095C382.797 79.6632 385.038 92.4799 394.139 92.1742C400.273 91.9705 408.633 86.0681 410.82 91.8074C411.459 93.485 410.868 95.3936 411.276 97.1391C413.476 106.587 460.803 95.5362 470.162 95.5837C469.578 101.751 468.987 107.911 468.403 114.078C481.593 116.252 494.783 118.432 507.98 120.606C504.319 126.365 501.473 132.648 499.572 139.195C514.079 144.262 528.594 149.329 543.102 154.402C543.197 159.476 541.417 164.557 538.177 168.462C549.024 168.965 559.871 169.46 570.718 169.963C572.07 170.024 573.577 170.16 574.474 171.179C576.308 173.264 573.937 176.239 572.511 178.616C569.23 184.09 571.533 191.528 576.07 196.017C580.607 200.507 586.849 202.741 592.873 204.853C590.734 210.056 588.594 215.252 586.448 220.455C597.01 226.642 607.578 232.837 618.14 239.024C607.571 232.83 604.379 255.162 608.753 260.989C610.926 263.883 615.987 265.628 618.608 268.97C623.22 274.838 625.808 284.401 628.144 291.404C616.951 289.747 607.462 304.723 613.731 314.137C616.081 317.669 619.831 320.019 622.541 323.279C625.257 326.539 626.731 331.667 623.953 334.873C622.221 336.876 619.328 337.528 617.508 339.444C613.949 343.172 616.095 349.374 619.084 353.578C622.072 357.775 625.943 362.17 625.325 367.291C624.571 373.512 617.841 376.773 612.991 380.739C608.142 384.712 605.595 393.882 611.422 396.177C602.572 399.329 593.715 402.474 584.865 405.625C590.571 410.576 587.582 420.812 581.103 424.69C574.616 428.568 566.48 427.916 558.995 426.857C556.332 426.477 553.215 426.212 551.367 428.161C550.036 429.56 549.839 431.659 549.71 433.588C549.377 438.648 549.045 443.715 548.705 448.775C541.417 449.039 527.507 446.853 523.445 452.503C522.216 454.208 524.274 477.45 523.33 477.45C511.098 476.649 498.865 475.841 486.626 475.032C483.488 482.898 481.906 491.374 482.001 499.844C470.407 498.913 458.813 497.976 447.219 497.038C445.365 502.995 443.517 508.952 441.663 514.908C434.457 514.1 428.127 509.23 420.886 508.728C411.466 508.075 402.351 516.294 402.032 525.735C392.91 519.208 381.201 512.415 371.216 517.53C369.505 518.386 367.841 519.608 366.204 520.912Z" fill="white"/>
</mask>
<g mask="url(#mask4_1606_380)">
<path d="M532.982 262.055C522.706 270.973 521.3 286.819 523.507 299.52C526.957 319.4 542.199 347.438 564.667 350.433C578.624 352.294 592.358 342.765 606.254 345.081C614.106 346.392 620.87 351.343 628.518 353.537C636.166 355.737 646.408 353.652 648.616 346.004C649.872 341.644 648.086 336.672 649.988 332.55C652.63 326.817 660.495 326.151 666.723 327.184C672.951 328.216 679.913 329.948 685.136 326.403C692.2 321.614 690.998 311.155 692.879 302.835C694.835 294.175 700.792 286.9 703.21 278.356C708.732 258.863 693.524 238.195 674.582 231.002C655.639 223.81 634.454 226.825 614.69 231.274C598.11 235.003 581.748 239.669 565.699 245.245C554.037 249.307 542.301 253.98 532.982 262.055Z" fill="#524543"/>
</g>
<path d="M329.296 379.781C328.59 403.166 343.641 424.045 366.061 431.299C392.129 439.728 418.665 427.78 437.71 410.155C442.533 405.693 435.313 398.5 430.504 402.949C415.704 416.641 395.104 427.495 374.212 422.924C353.714 418.441 338.846 400.938 339.484 379.775C339.681 373.22 329.493 373.227 329.296 379.781Z" fill="#090406"/>
<path d="M327.986 378.301C327.667 399.702 318.776 423.848 294.637 426.252C275.728 428.134 254.306 421.498 242.896 405.815C239.079 400.565 230.235 405.645 234.1 410.957C248.411 430.626 275.151 440.135 299.174 436.06C326.553 431.407 337.8 403.547 338.174 378.308C338.269 371.74 328.081 371.74 327.986 378.301Z" fill="#090406"/>
<path d="M302.319 377.227C312.262 385.113 324.556 391.396 331.674 394.968C332.516 395.396 333.412 395.817 334.363 395.79C335.362 395.763 336.265 395.24 337.121 394.73C351.017 386.383 383.965 366.286 377.377 347.805C371.386 331.008 348.891 321.255 332.251 321.907C317.526 322.484 294.453 332.441 288.15 346.725C283.226 357.85 291.336 368.513 302.319 377.227Z" fill="#D16F6D"/>
<path d="M315.271 353.367C323.225 347.648 322.817 332.543 309.009 335.015C296.906 337.182 293.197 354.386 307.549 355.459C310.625 355.697 313.227 354.841 315.271 353.367Z" fill="white"/>
<g opacity="0.5">
<path d="M135.344 317.499C119.621 313.838 103.7 311.658 87.576 310.863C81.0218 310.537 81.0421 320.725 87.576 321.051C102.797 321.805 117.787 323.87 132.634 327.327C139.012 328.807 141.735 318.986 135.344 317.499Z" fill="#A97043"/>
</g>
<g opacity="0.5">
<path d="M186.359 328.761C176.863 325.684 167.09 324.108 157.112 323.925C150.551 323.809 150.551 333.997 157.112 334.113C166.22 334.276 174.989 335.777 183.649 338.582C189.904 340.606 192.58 330.778 186.359 328.761Z" fill="#A97043"/>
</g>
<g opacity="0.5">
<path d="M149.703 348.973C135.799 347.928 122.093 348.675 108.339 350.902C101.887 351.948 104.624 361.77 111.049 360.724C123.879 358.645 136.75 358.183 149.703 359.161C156.243 359.651 156.216 349.463 149.703 348.973Z" fill="#A97043"/>
</g>
<g opacity="0.5">
<path d="M151.787 293.408C141.925 287.044 131.337 282.072 120.205 278.357C113.97 276.279 111.3 286.114 117.495 288.178C127.832 291.622 137.49 296.295 146.639 302.197C152.174 305.77 157.282 296.953 151.787 293.408Z" fill="#A97043"/>
</g>
<g opacity="0.5">
<path d="M539.679 327.32C554.527 323.863 569.51 321.798 584.737 321.044C591.264 320.718 591.298 310.53 584.737 310.856C568.613 311.651 552.693 313.831 536.969 317.492C530.591 318.986 533.288 328.808 539.679 327.32Z" fill="#A97043"/>
</g>
<g opacity="0.5">
<path d="M488.664 338.581C497.331 335.776 506.093 334.275 515.201 334.112C521.748 333.996 521.769 323.808 515.201 323.924C505.223 324.1 495.45 325.676 485.954 328.76C479.747 330.77 482.402 340.612 488.664 338.581Z" fill="#A97043"/>
</g>
<g opacity="0.5">
<path d="M522.611 359.161C535.57 358.19 548.434 358.645 561.265 360.724C567.676 361.763 570.44 351.948 563.974 350.902C550.221 348.675 536.514 347.928 522.611 348.973C516.111 349.463 516.057 359.651 522.611 359.161Z" fill="#A97043"/>
</g>
<g opacity="0.5">
<path d="M525.668 302.203C534.823 296.301 544.482 291.628 554.812 288.185C561 286.12 558.351 276.278 552.102 278.363C540.97 282.072 530.388 287.05 520.519 293.415C515.031 296.946 520.139 305.769 525.668 302.203Z" fill="#A97043"/>
</g>
<path d="M446.377 244.329C430.45 235.744 409.931 241.884 396.205 253.668C392.72 256.663 389.487 260.032 387.151 263.992C369.933 293.157 405.672 320.983 432.548 313.132C461.856 304.574 478.788 261.805 446.377 244.329Z" fill="white"/>
<path d="M397.23 282.439C401.17 293.768 413.945 299.948 425.933 300.335C428.976 300.43 432.066 300.233 434.98 299.344C456.45 292.796 451.444 263.204 434.79 255.006C416.635 246.067 389.216 259.393 397.23 282.439Z" fill="#090406"/>
<path d="M413.531 271.327C421.824 264.372 421.403 246.02 407.004 249.022C394.385 251.658 390.513 272.563 405.483 273.867C408.682 274.153 411.392 273.114 413.531 271.327Z" fill="white"/>
<path d="M268.006 244.329C252.079 235.744 231.56 241.884 217.833 253.668C214.342 256.663 211.116 260.032 208.78 263.992C191.562 293.157 227.301 320.983 254.177 313.132C283.485 304.574 300.417 261.805 268.006 244.329Z" fill="white"/>
<path d="M218.859 282.439C222.798 293.768 235.574 299.948 247.562 300.335C250.612 300.43 253.695 300.233 256.609 299.344C278.079 292.796 273.073 263.204 256.419 255.006C238.264 246.067 210.845 259.393 218.859 282.439Z" fill="#090406"/>
<path d="M235.16 271.327C243.453 264.372 243.032 246.02 228.633 249.022C216.013 251.658 212.142 272.563 227.112 273.867C230.311 274.153 233.021 273.114 235.16 271.327Z" fill="white"/>
<g opacity="0.5">
<path d="M385.412 375.618C389.827 373.54 394.418 371.964 399.125 370.667C405.442 368.928 402.759 359.1 396.415 360.845C390.859 362.374 385.487 364.371 380.271 366.822C374.341 369.607 379.503 378.396 385.412 375.618Z" fill="#090406"/>
<path d="M393.42 399.274C399.01 397.101 404.817 395.471 410.78 394.717C413.531 394.37 415.84 392.625 415.874 389.623C415.901 387.137 413.511 384.182 410.78 384.529C403.852 385.405 397.23 386.92 390.717 389.446C384.665 391.803 387.294 401.658 393.42 399.274Z" fill="#090406"/>
<path d="M417.389 375.489C421.457 374.463 425.526 373.757 429.71 373.437C436.203 372.942 436.257 362.747 429.71 363.249C424.636 363.637 419.617 364.418 414.679 365.668C408.329 367.27 411.025 377.098 417.389 375.489Z" fill="#090406"/>
<path d="M288.103 366.259C282.887 363.807 277.514 361.81 271.958 360.282C265.628 358.543 262.925 368.364 269.248 370.103C273.955 371.4 278.54 372.976 282.961 375.054C288.857 377.825 294.039 369.043 288.103 366.259Z" fill="#090406"/>
<path d="M277.657 388.89C271.143 386.356 264.514 384.842 257.593 383.972C254.843 383.626 252.527 386.56 252.499 389.066C252.465 392.102 254.877 393.814 257.593 394.16C263.557 394.914 269.364 396.544 274.954 398.718C281.06 401.088 283.709 391.24 277.657 388.89Z" fill="#090406"/>
<path d="M253.688 365.104C248.75 363.854 243.731 363.073 238.657 362.686C232.117 362.183 232.151 372.378 238.657 372.874C242.841 373.193 246.916 373.9 250.978 374.925C257.335 376.535 260.052 366.714 253.688 365.104Z" fill="#090406"/>
</g>
</svg>
