<svg width="628" height="577" viewBox="0 0 628 577" fill="none" xmlns="http://www.w3.org/2000/svg">
<path d="M519.835 334.684C477.296 321.541 433.617 275.912 405.804 255.991C386.956 242.489 361.323 238.556 355.808 212.149C351.773 192.833 370.383 165.182 381.339 149.595C410.83 107.654 455.311 78.4418 497.829 51.2058C520.738 36.5283 543.647 21.8508 566.557 7.17329C574.436 2.12683 584.671 -2.98082 592.529 2.0996C597.182 5.10845 599.226 10.7731 600.911 16.0505C624.9 91.007 635.428 156.767 619.711 234.339C612.423 270.289 602.548 310.158 571.549 329.753C555.35 339.995 537.698 340.205 519.835 334.684Z" fill="#524543"/>
<path d="M490.704 115.024C498.759 108.619 506.808 102.214 514.863 95.8094C527.123 86.0629 548.721 64.3149 565.212 63.2486C583.571 62.0667 586.131 81.1523 587.802 97.7044C593.277 151.864 576.365 205.5 559.663 257.316C545.407 301.546 520.059 315.048 487.41 275.274C464.365 247.21 450.91 243.372 416.399 235.385C388.498 229.422 401.464 197.377 413.017 181.891C422.275 169.482 434.541 159.695 446.658 150.057C461.342 138.375 476.02 126.699 490.704 115.024Z" fill="#E5928C"/>
<path d="M107.323 334.684C149.861 321.541 193.54 275.912 221.354 255.991C240.201 242.489 265.834 238.556 271.35 212.149C275.384 192.833 256.774 165.182 245.818 149.595C216.328 107.654 171.84 78.4418 129.329 51.2058C106.419 36.5283 83.51 21.8508 60.6006 7.17329C52.7219 2.12683 42.4795 -2.98082 34.628 2.0996C29.9755 5.10845 27.9311 10.7731 26.2467 16.0505C2.25731 91.007 -8.27027 156.767 7.44642 234.339C14.7274 270.289 24.6098 310.158 55.6085 329.753C71.8074 339.995 89.4666 340.205 107.323 334.684Z" fill="#524543"/>
<path d="M136.454 115.024C128.405 108.619 120.35 102.214 112.301 95.8094C100.042 86.0629 78.4433 64.3149 61.9455 63.2486C43.5868 62.0667 41.0262 81.1523 39.3554 97.7044C33.881 151.864 50.7931 205.5 67.4946 257.316C81.751 301.546 107.099 315.048 139.748 275.274C162.793 247.21 176.255 243.372 210.758 235.385C238.66 229.422 225.694 197.377 214.141 181.891C204.883 169.482 192.617 159.695 180.5 150.057C165.816 138.375 151.138 126.699 136.454 115.024Z" fill="#E5928C"/>
<path d="M348.493 573.592C340.927 575.284 333.503 576.262 326.303 576.364C276.145 577.104 224.729 529.078 183.59 503.56C133.642 472.582 84.7731 438.065 70.639 377.691C54.0529 306.837 84.5422 247.916 137.336 202.966C197.717 151.558 270.779 127.107 349.695 138.049C455.739 152.753 572.446 228.009 566.265 346.678C563.405 401.646 533.453 450.97 492.789 486.682C457.606 517.572 399.834 562.107 348.493 573.592Z" fill="#BAAA9D"/>
<mask id="mask0_1606_275" style="mask-type:luminance" maskUnits="userSpaceOnUse" x="66" y="135" width="501" height="442">
<path d="M348.493 573.592C340.927 575.284 333.503 576.262 326.303 576.364C276.145 577.104 224.729 529.078 183.59 503.56C133.642 472.582 84.7731 438.065 70.639 377.691C54.0529 306.837 84.5422 247.916 137.336 202.966C197.717 151.558 270.779 127.107 349.695 138.049C455.739 152.753 572.446 228.009 566.265 346.678C563.405 401.646 533.453 450.97 492.789 486.682C457.606 517.572 399.834 562.107 348.493 573.592Z" fill="white"/>
</mask>
<g mask="url(#mask0_1606_275)">
<path d="M322.907 274.568C322.391 273.1 321.861 271.64 321.324 270.18C316.93 280.436 312.529 290.685 308.134 300.941C302.443 293.836 296.425 286.997 290.108 280.443C288.478 292.43 286.841 304.418 285.211 316.413C280.396 310.653 274.779 305.566 268.571 301.341C266.764 332.184 269.603 365.886 258.94 395.166C241.763 442.337 201.432 481.907 173.517 523.073C160.857 541.751 149.582 564.498 156.068 586.11C163.764 611.763 192.616 624.084 218.725 630.074C290.305 646.484 366.552 640.011 435.389 614.426C462.714 604.272 472.935 567.812 472.664 541.581C472.419 518.332 459.059 499.355 443.132 483.523C427.253 467.739 409.6 453.462 397.15 434.634C383.526 414.034 374.465 390.405 370.145 366.124C367.904 353.531 365.751 307.631 365.751 307.631C365.751 307.631 358.287 316.549 354.551 321.004C353.213 311.944 351.875 302.883 350.537 293.823C346.122 301.403 341.707 308.976 337.286 316.555C327.444 309.56 326.812 285.666 322.907 274.568Z" fill="#524543"/>
</g>
<mask id="mask1_1606_275" style="mask-type:luminance" maskUnits="userSpaceOnUse" x="66" y="135" width="501" height="442">
<path d="M348.493 573.592C340.927 575.284 333.503 576.262 326.303 576.364C276.145 577.104 224.729 529.078 183.59 503.56C133.642 472.582 84.7731 438.065 70.639 377.691C54.0529 306.837 84.5422 247.916 137.336 202.966C197.717 151.558 270.779 127.107 349.695 138.049C455.739 152.753 572.446 228.009 566.265 346.678C563.405 401.646 533.453 450.97 492.789 486.682C457.606 517.572 399.834 562.107 348.493 573.592Z" fill="white"/>
</mask>
<g mask="url(#mask1_1606_275)">
<path opacity="0.1" d="M455.263 206.423C417.112 185.463 377.501 170.806 331.649 167.424C251.286 161.494 170.916 189.96 108.029 239.405C95.9865 248.873 68.6351 283.193 51.6348 276.055C54.3312 252.813 71.155 236.206 86.7766 220.544C105.427 201.846 123.426 182.699 143.918 165.936C195.007 124.138 247.516 110.71 312.502 109.603C388.314 108.313 482.091 118.65 539.525 173.611C551.723 185.287 561.999 198.796 571.97 212.421C580.888 224.605 596.944 246.754 591.198 263.191C581.547 290.753 501.469 234.685 489.698 227.091C478.267 219.715 466.83 212.781 455.263 206.423Z" fill="white"/>
</g>
<path d="M309.202 432.365C308.407 456.029 321.753 479.801 344.9 487.89C370.364 496.788 396.085 483.054 413.391 464.824C417.901 460.07 410.708 452.85 406.185 457.618C392.519 472.024 373.25 484.283 352.419 479.488C330.882 474.53 318.683 453.291 319.39 432.365C319.614 425.811 309.426 425.818 309.202 432.365Z" fill="#090406"/>
<path d="M307.951 430.763C307.754 451.873 300.12 481.846 274.623 483.571C256.128 484.82 236.697 476.765 226.767 460.96C223.289 455.425 214.466 460.526 217.971 466.102C230.699 486.356 256.584 497.345 280.362 493.113C308.549 488.094 317.908 455.656 318.139 430.763C318.201 424.209 308.013 424.202 307.951 430.763Z" fill="#090406"/>
<path d="M285.26 417.485C294.144 424.529 305.127 430.146 311.477 433.331C312.231 433.711 313.033 434.085 313.875 434.064C314.764 434.037 315.573 433.576 316.34 433.12C328.756 425.663 358.186 407.711 352.297 391.207C346.945 376.203 326.854 367.489 311.987 368.074C298.83 368.59 278.223 377.487 272.593 390.242C268.205 400.179 275.452 409.708 285.26 417.485Z" fill="#D16F6D"/>
<path d="M296.833 396.178C303.937 391.064 303.57 377.582 291.243 379.789C280.43 381.725 277.122 397.088 289.939 398.053C292.676 398.257 294.999 397.496 296.833 396.178Z" fill="white"/>
<g opacity="0.5">
<path d="M391.867 174.399C380.646 183.147 373.888 196.364 368.93 209.404C366.594 215.538 376.442 218.193 378.751 212.115C383.125 200.622 389.218 189.287 399.066 181.605C404.235 177.577 396.981 170.412 391.867 174.399Z" fill="#BAAA9D"/>
</g>
<g opacity="0.5">
<path d="M252.182 219.572C253.154 203.591 247.625 189.246 241.261 174.887C238.612 168.904 229.83 174.086 232.465 180.029C238.13 192.825 242.864 205.356 241.994 219.572C241.594 226.12 251.782 226.099 252.182 219.572Z" fill="#BAAA9D"/>
</g>
<g opacity="0.5">
<path d="M276.763 215.252C281.653 231.343 284.051 247.317 279.201 263.7C277.34 270.003 287.168 272.692 289.023 266.41C294.361 248.363 291.977 230.276 286.584 212.542C284.689 206.287 274.854 208.956 276.763 215.252Z" fill="#BAAA9D"/>
</g>
<g opacity="0.5">
<path d="M319.342 204.698C320.014 189.104 319.152 173.699 317.046 158.241C316.17 151.775 306.349 154.525 307.225 160.951C309.202 175.472 309.786 190.061 309.154 204.698C308.869 211.252 319.057 211.239 319.342 204.698Z" fill="#BAAA9D"/>
</g>
<g opacity="0.5">
<path d="M320.544 311.285C321.217 295.69 320.354 280.286 318.249 264.828C317.372 258.362 307.551 261.112 308.427 267.538C310.397 282.059 310.988 296.648 310.356 311.285C310.071 317.846 320.259 317.826 320.544 311.285Z" fill="#BAAA9D"/>
</g>
<g opacity="0.5">
<path d="M118.659 355.806C103.492 352.274 88.1356 350.176 72.5819 349.401C66.0276 349.075 66.048 359.263 72.5819 359.589C87.239 360.316 101.658 362.299 115.949 365.627C122.327 367.115 125.05 357.294 118.659 355.806Z" fill="#BAAA9D"/>
</g>
<g opacity="0.5">
<path d="M167.819 366.66C158.657 363.692 149.216 362.171 139.592 361.994C133.031 361.879 133.031 372.067 139.592 372.182C148.353 372.338 156.782 373.778 165.109 376.481C171.365 378.505 174.041 368.678 167.819 366.66Z" fill="#BAAA9D"/>
</g>
<g opacity="0.5">
<path d="M132.446 386.132C119.032 385.127 105.808 385.847 92.5366 388C86.0774 389.046 88.8213 398.867 95.2465 397.821C107.594 395.824 119.983 395.383 132.446 396.32C138.987 396.809 138.96 386.621 132.446 386.132Z" fill="#BAAA9D"/>
</g>
<g opacity="0.5">
<path d="M134.552 332.612C125.03 326.472 114.822 321.67 104.077 318.09C97.8416 316.012 95.1655 325.847 101.367 327.911C111.31 331.226 120.602 335.722 129.411 341.407C134.933 344.973 140.047 336.157 134.552 332.612Z" fill="#BAAA9D"/>
</g>
<g opacity="0.5">
<path d="M508.288 365.627C522.579 362.299 537.005 360.309 551.655 359.589C558.183 359.263 558.223 349.075 551.655 349.401C536.102 350.169 520.745 352.274 505.579 355.806C499.194 357.294 501.897 367.115 508.288 365.627Z" fill="#BAAA9D"/>
</g>
<g opacity="0.5">
<path d="M459.128 376.48C467.462 373.777 475.89 372.337 484.652 372.181C491.2 372.066 491.22 361.878 484.652 361.993C475.028 362.17 465.587 363.684 456.425 366.659C450.203 368.67 452.866 378.511 459.128 376.48Z" fill="#BAAA9D"/>
</g>
<g opacity="0.5">
<path d="M491.784 396.32C504.254 395.383 516.636 395.824 528.984 397.821C535.395 398.86 538.16 389.046 531.694 388C518.429 385.854 505.198 385.127 491.784 386.132C485.291 386.621 485.236 396.809 491.784 396.32Z" fill="#BAAA9D"/>
</g>
<g opacity="0.5">
<path d="M494.826 341.407C503.629 335.729 512.927 331.226 522.871 327.911C529.058 325.846 526.409 316.005 520.161 318.09C509.416 321.669 499.207 326.465 489.685 332.611C484.197 336.15 489.298 344.973 494.826 341.407Z" fill="#BAAA9D"/>
</g>
<g opacity="0.5">
<path d="M348.391 207.489C340.234 223.579 334.807 242.549 340.315 260.351C342.251 266.593 352.086 263.931 350.137 257.641C345.45 242.495 350.245 226.31 357.187 212.631C360.148 206.796 351.366 201.634 348.391 207.489Z" fill="#BAAA9D"/>
</g>
<path d="M454.808 292.112C436.368 282.168 412.617 289.28 396.723 302.925C392.689 306.395 388.946 310.294 386.243 314.879C366.309 348.642 407.679 380.849 438.8 371.762C472.726 361.852 492.327 312.338 454.808 292.112Z" fill="white"/>
<path d="M397.919 336.226C402.476 349.334 417.269 356.5 431.145 356.941C434.671 357.057 438.243 356.819 441.619 355.794C466.471 348.22 460.677 313.955 441.401 304.473C420.38 294.129 388.634 309.547 397.919 336.226Z" fill="#090406"/>
<path d="M416.787 323.362C426.391 315.313 425.895 294.061 409.227 297.546C394.618 300.595 390.142 324.795 407.461 326.31C411.17 326.636 414.314 325.434 416.787 323.362Z" fill="white"/>
<path d="M231.195 292.112C212.755 282.168 189.003 289.28 173.11 302.925C169.069 306.395 165.333 310.294 162.63 314.879C142.695 348.642 184.065 380.849 215.186 371.762C249.112 361.852 268.714 312.338 231.195 292.112Z" fill="white"/>
<path d="M174.306 336.226C178.863 349.334 193.656 356.5 207.532 356.941C211.057 357.057 214.63 356.819 218.005 355.794C242.857 348.22 237.064 313.955 217.788 304.473C196.767 294.129 165.021 309.547 174.306 336.226Z" fill="#090406"/>
<path d="M193.174 323.362C202.777 315.313 202.282 294.061 185.614 297.546C171.004 300.595 166.529 324.795 183.848 326.31C187.557 326.636 190.701 325.434 193.174 323.362Z" fill="white"/>
<g opacity="0.5">
<path d="M375.681 419.068C381.19 416.473 386.908 414.49 392.777 412.88C399.093 411.148 396.41 401.314 390.067 403.059C383.349 404.9 376.843 407.304 370.54 410.272C364.61 413.064 369.779 421.853 375.681 419.068Z" fill="#090406"/>
<path d="M385.788 447.974C392.749 445.271 399.963 443.281 407.386 442.343C413.805 441.535 413.886 431.334 407.386 432.155C398.998 433.215 390.97 435.083 383.078 438.146C377.033 440.496 379.661 450.351 385.788 447.974Z" fill="#090406"/>
<path d="M415.183 418.796C420.263 417.506 425.371 416.63 430.608 416.236C437.108 415.747 437.155 405.552 430.608 406.048C424.481 406.51 418.43 407.461 412.473 408.975C406.129 410.585 408.819 420.413 415.183 418.796Z" fill="#090406"/>
<path d="M256.318 409.579C250.015 406.611 243.509 404.207 236.791 402.366C230.461 400.634 227.758 410.455 234.081 412.194C239.95 413.804 245.669 415.787 251.177 418.382C257.072 421.153 262.248 412.378 256.318 409.579Z" fill="#090406"/>
<path d="M243.78 437.461C235.888 434.397 227.86 432.523 219.472 431.47C212.985 430.655 213.047 440.85 219.472 441.658C226.895 442.595 234.109 444.586 241.07 447.289C247.19 449.659 249.839 439.811 243.78 437.461Z" fill="#090406"/>
<path d="M214.378 408.282C208.421 406.768 202.37 405.817 196.243 405.355C189.703 404.866 189.737 415.054 196.243 415.543C201.473 415.937 206.581 416.813 211.668 418.104C218.025 419.72 220.742 409.899 214.378 408.282Z" fill="#090406"/>
</g>
</svg>
